<svg width="60" height="60" viewBox="0 0 60 60" fill="none" xmlns="http://www.w3.org/2000/svg">
<path d="M47.8951 1.87744H12.1051V58.1249H47.8951V1.87744Z" fill="white"/>
<path d="M17.2175 53.0098H26.1675L30 49.1747L33.835 53.0072H42.7825V6.98975L17.2175 53.0098Z" fill="#FFCE84"/>
<path d="M47.8951 1.87744H12.1051V58.1249H47.8951V1.87744Z" stroke="#111111" stroke-width="2.5" stroke-linecap="round" stroke-linejoin="round"/>
<path d="M47.8951 6.99268H53.0075M47.8951 14.6602H53.0075M47.8951 22.3277H53.0075M47.8951 29.9977H53.0075M47.8951 37.6652H53.0075M47.8951 45.3352H53.0075M47.8951 53.0002H53.0075M6.99255 6.99268H12.1051M6.99255 14.6602H12.1051M6.99255 22.3277H12.1051M6.99255 29.9977H12.1051M6.99255 37.6652H12.1051M6.99255 45.3352H12.1051M6.99255 53.0002H12.1051M17.2176 6.99268H26.1676L30.0001 10.8252L33.8351 6.99268H42.7826V53.0102H33.8326L30.0001 49.1752L26.1651 53.0077H17.2176V6.99268Z" stroke="#111111" stroke-width="2.5" stroke-linecap="round" stroke-linejoin="round"/>
</svg>
