<svg width="60" height="60" viewBox="0 0 60 60" fill="none" xmlns="http://www.w3.org/2000/svg">
<g clip-path="url(#clip0_18_81)">
<path d="M51.7299 1.87744H42.7824L37.6699 6.98994V13.3824L32.5574 20.4124V1.87744H19.7749V19.7749L12.1049 12.1049L1.87988 8.26994L5.71238 18.4949L14.6624 27.4449H8.26738L13.3799 58.1199H38.9499L44.0624 27.4449H37.6724L42.7849 17.2174H47.8974L51.7324 8.26744H58.1249L51.7299 1.87744Z" fill="white"/>
<path d="M41.5049 16.2499V9.5499L45.3399 5.7124H55.5649L58.1224 8.2699H51.7299L47.8949 17.2174H42.7824L41.5049 16.2499ZM21.0574 27.4424L1.88744 8.2749L1.87744 8.2724L5.71244 18.4974L14.6624 27.4474L21.0574 27.4424ZM32.0624 27.4424H37.6699L42.7824 17.2174L40.6574 15.6249L32.0624 27.4424ZM19.7749 6.9899H32.5574V20.4149L27.4424 27.4424L19.7749 19.7749V6.9899ZM26.1649 27.4424V58.1249H38.9474L44.0599 27.4449L26.1649 27.4424Z" fill="#FFCE84"/>
<path d="M44.06 27.4424H8.27002L13.3825 58.1249H38.9475L44.06 27.4424Z" stroke="#111111" stroke-width="2.5" stroke-miterlimit="10" stroke-linecap="round" stroke-linejoin="round"/>
<path d="M43.2099 32.5575H49.1749L54.2874 41.505L49.1749 50.4525H40.2249M14.6599 27.4425L5.71244 18.495L1.87744 8.27L12.1024 12.105L27.4424 27.4425L37.6699 13.38M8.26994 21.05L14.6599 14.66M37.6699 13.38V6.99L42.7824 1.875H51.7299L58.1224 8.27L51.7299 8.265L47.8949 17.215H42.7824M37.6699 13.38L42.7824 17.215M42.7824 17.215L37.6699 27.4425M32.5574 20.4125V1.8775H19.7749V19.775M32.5574 6.99H27.4424M32.5574 12.105H27.4424" stroke="#111111" stroke-width="2.5" stroke-miterlimit="10" stroke-linecap="round" stroke-linejoin="round"/>
</g>
<defs>
<clipPath id="clip0_18_81">
<rect width="60" height="60" fill="white"/>
</clipPath>
</defs>
</svg>
