<svg width="60" height="60" viewBox="0 0 60 60" fill="none" xmlns="http://www.w3.org/2000/svg">
<g clip-path="url(#clip0_18_76)">
<path d="M37.67 6.34988L45.34 1.87988L53.01 6.35488V15.2999L45.34 19.7749L37.67 15.2999V6.34988ZM1.88 44.6999L9.5475 40.2249L17.2175 44.6999V53.6499L9.55 58.1199L1.8825 53.6449L1.88 44.6999Z" fill="white"/>
<path d="M53.01 6.3501L37.67 15.3001L45.34 19.7751L53.01 15.3001V6.3501ZM17.2175 44.7001L1.88 53.6501L9.5475 58.1226L17.2175 53.6476V44.7001ZM27.4425 47.8976L22.3325 53.0101L27.4425 58.1201L32.555 53.0076L27.4425 47.8976ZM27.4425 24.8876L22.3325 30.0001L27.4425 35.1126L32.555 30.0001L27.4425 24.8876ZM53.01 24.8876L47.895 30.0001L53.0075 35.1126L58.12 30.0001L53.01 24.8876Z" fill="#FFCE84"/>
<path d="M32.5575 29.9999H47.8975M32.5575 29.9999L27.445 35.1124M32.5575 29.9999L27.4425 24.8874L22.3325 29.9999L27.445 35.1124M47.8975 29.9999L53.01 24.8874L58.12 29.9999L53.0075 35.1124L47.8975 29.9999ZM27.445 47.8949V35.1124M21.8925 36.3924L15.06 43.4424M40.635 17.0299L33.8075 24.0799M27.4425 47.8974L22.3325 53.0099L27.4425 58.1199L32.555 53.0074L27.4425 47.8974ZM37.67 6.34988L45.34 1.87988L53.01 6.35488V15.2999L45.34 19.7749L37.67 15.2999V6.34988ZM1.88 44.6999L9.5475 40.2249L17.2175 44.6999V53.6499L9.55 58.1199L1.8825 53.6449L1.88 44.6999Z" stroke="#111111" stroke-width="2.5" stroke-miterlimit="10" stroke-linecap="round" stroke-linejoin="round"/>
</g>
<defs>
<clipPath id="clip0_18_76">
<rect width="60" height="60" fill="white"/>
</clipPath>
</defs>
</svg>
