<svg width="70" height="70" viewBox="0 0 70 70" fill="none" xmlns="http://www.w3.org/2000/svg">
<path d="M63.5837 2.12939H6.41699V67.8711H63.5837V2.12939Z" fill="white"/>
<path d="M63.5837 60.7253H6.41699V67.8711H63.5837V60.7253ZM37.707 33.4194L39.2878 35.0003L35.0003 39.2878L32.2937 36.5811L17.8503 45.0044L35.0003 55.0086L52.1503 45.0044V24.9961L37.707 33.4194Z" fill="#FFCE84"/>
<path d="M63.5837 2.12939H6.41699V67.8711H63.5837V2.12939Z" stroke="#111111" stroke-width="2.91667" stroke-linecap="round" stroke-linejoin="round"/>
<path d="M49.2921 56.4379V62.1545M55.0088 56.4379V62.1545M12.1338 7.84619V10.7045M57.8671 7.84619V10.7045M35.0005 30.7129L30.713 35.0004L35.0005 39.2879L39.288 35.0004L35.0005 30.7129ZM17.8505 62.1545L12.1338 56.4379L30.713 43.5754L17.8505 62.1545Z" stroke="#111111" stroke-width="2.91667" stroke-linecap="round" stroke-linejoin="round"/>
<path d="M26.3089 49.9392L35.0006 55.0084L52.1506 45.0042V24.9959L35.0006 14.9917L17.8506 24.9959V45.0042L23.7102 48.4225" stroke="#111111" stroke-width="2.91667" stroke-linecap="round" stroke-linejoin="round"/>
</svg>
