<svg width="70" height="70" viewBox="0 0 70 70" fill="none" xmlns="http://www.w3.org/2000/svg">
<path d="M56.8747 13.125L48.1247 4.375H21.8747L13.1247 13.125L10.208 29.1667V49.5833L13.1247 58.3333L24.7913 65.625H45.208L56.8747 58.3333L59.7913 49.5833V29.1667L56.8747 13.125Z" fill="white"/>
<path d="M35 65.625H45.2083L56.875 58.3333L59.7917 49.5833V29.1667L56.875 13.125L45.2083 21.875H35V65.625Z" fill="#FFCE84"/>
<path d="M45.2083 21.875L56.875 13.125L48.125 4.375H21.875L13.125 13.125L24.7917 21.875H45.2083Z" stroke="#111111" stroke-width="2.91667" stroke-miterlimit="10" stroke-linecap="round" stroke-linejoin="round"/>
<path d="M56.8747 13.125L59.7913 29.1667V49.5833L56.8747 58.3333L45.208 65.625H24.7913L13.1247 58.3333L10.208 49.5833V29.1667L13.1247 13.125" stroke="#111111" stroke-width="2.91667" stroke-miterlimit="10" stroke-linecap="round" stroke-linejoin="round"/>
<path d="M59.7913 46.6667L45.208 56.8751H24.7913L10.208 46.6667" stroke="#111111" stroke-width="2.91667" stroke-miterlimit="10" stroke-linecap="round" stroke-linejoin="round"/>
<path d="M59.7913 37.9167L45.208 48.1251H24.7913L10.208 37.9167" stroke="#111111" stroke-width="2.91667" stroke-miterlimit="10" stroke-linecap="round" stroke-linejoin="round"/>
<path d="M59.7913 29.1667L45.208 39.3751H24.7913L10.208 29.1667" stroke="#111111" stroke-width="2.91667" stroke-miterlimit="10" stroke-linecap="round" stroke-linejoin="round"/>
<path d="M58.625 21.8749L45.2083 30.6249H24.7917L11.375 21.8749M27.7083 10.2083L23.3333 13.1249L27.7083 16.0416L32.0833 13.1249L27.7083 10.2083Z" stroke="#111111" stroke-width="2.91667" stroke-miterlimit="10" stroke-linecap="round" stroke-linejoin="round"/>
</svg>
