<svg width="70" height="70" viewBox="0 0 70 70" fill="none" xmlns="http://www.w3.org/2000/svg">
<g clip-path="url(#clip0_51_972)">
<path d="M55.8774 56.2392L67.8066 44.3101L61.4833 37.9809L55.8774 43.5867V14.1226H11.1416V61.8451H39.3166L37.9866 67.8096L46.1329 65.9867L50.2745 61.8451H55.8804L55.8774 56.2392Z" fill="white"/>
<path d="M2.19043 8.15796V55.8775L11.1388 61.8421V14.1225L2.19043 8.15796ZM64.6742 41.1775L38.0596 67.7921L46.13 65.9838L67.8096 44.313L64.6742 41.1775Z" fill="#FFCE84"/>
<path d="M52.8967 8.15793H14.1225M55.8775 2.19043H11.1417L2.19043 8.15501M2.19043 8.15501L11.1417 14.1225M2.19043 8.15501V55.8775L11.1388 61.8421M11.1417 14.1225H55.8775V35M11.1417 14.1225V61.845H32.0192M39.8038 59.6604L61.4833 37.9838L67.8096 44.3129L46.13 65.9838L37.9838 67.8096L39.8038 59.6604Z" stroke="#111111" stroke-width="2.91667" stroke-linecap="round" stroke-linejoin="round"/>
</g>
<defs>
<clipPath id="clip0_51_972">
<rect width="70" height="70" fill="white"/>
</clipPath>
</defs>
</svg>
