<svg width="80" height="80" viewBox="0 0 80 80" fill="none" xmlns="http://www.w3.org/2000/svg">
<g clip-path="url(#clip0_839_1342)">
<mask id="mask0_839_1342" style="mask-type:luminance" maskUnits="userSpaceOnUse" x="0" y="0" width="80" height="80">
<path d="M80 0H0V80H80V0Z" fill="white"/>
</mask>
<g mask="url(#mask0_839_1342)">
<path d="M17.1429 34.2857C26.6106 34.2857 34.2857 26.6106 34.2857 17.1429C34.2857 7.67512 26.6106 0 17.1429 0C7.67512 0 0 7.67512 0 17.1429C0 26.6106 7.67512 34.2857 17.1429 34.2857Z" fill="#FFCE84"/>
<path d="M15.2113 61.5732C16.0315 58.0982 13.8793 54.6164 10.4044 53.7961C6.92949 52.976 3.44762 55.1281 2.62746 58.6031C1.8073 62.078 3.95943 65.5599 7.43436 66.38C10.9093 67.2001 14.3912 65.048 15.2113 61.5732Z" stroke="#111111" stroke-width="2" stroke-linecap="round" stroke-linejoin="round"/>
<path d="M16.9599 22.4228C19.4846 19.8981 19.4846 15.8049 16.9599 13.2802C14.4352 10.7556 10.342 10.7556 7.81733 13.2802C5.29266 15.8049 5.29266 19.8981 7.81733 22.4228C10.342 24.9475 14.4352 24.9475 16.9599 22.4228Z" stroke="#111111" stroke-width="2" stroke-linecap="round" stroke-linejoin="round"/>
<path d="M75.8745 11.5475C76.6946 8.07255 74.5425 4.59069 71.0675 3.77053C67.5926 2.95037 64.1107 5.10248 63.2906 8.57743C62.4703 12.0524 64.6225 15.5342 68.0974 16.3543C71.5724 17.1746 75.0542 15.0225 75.8745 11.5475Z" stroke="#111111" stroke-width="2" stroke-linecap="round" stroke-linejoin="round"/>
<path d="M9.36914 48.2L10.5294 29.1975" stroke="#111111" stroke-width="2" stroke-linecap="round" stroke-linejoin="round"/>
<path d="M24.7523 26.6951L21.0029 23.8069" stroke="#111111" stroke-width="2" stroke-linecap="round" stroke-linejoin="round"/>
<path d="M63.0561 17.8516L58.2236 23.8072" stroke="#111111" stroke-width="2" stroke-linecap="round" stroke-linejoin="round"/>
<path d="M67.3452 72.2293L71.8845 77.1482C73.3904 78.7807 75.9331 78.8825 77.5625 77.3765C79.1948 75.8707 79.2966 73.328 77.7908 71.6986L63.2442 55.9331L57.3379 61.3827L60.649 64.9715L67.3452 72.2293Z" stroke="#111111" stroke-width="2" stroke-linecap="round" stroke-linejoin="round"/>
<path d="M62.56 56.5692L57.7832 51.3975" stroke="#111111" stroke-width="2" stroke-linecap="round" stroke-linejoin="round"/>
<path d="M58.1066 60.6723L53.1816 55.3369" stroke="#111111" stroke-width="2" stroke-linecap="round" stroke-linejoin="round"/>
<path d="M44.032 57.8588C53.8997 57.8588 61.899 49.8595 61.899 39.992C61.899 30.1243 53.8997 22.125 44.032 22.125C34.1644 22.125 26.165 30.1243 26.165 39.992C26.165 49.8595 34.1644 57.8588 44.032 57.8588Z" stroke="#111111" stroke-width="2" stroke-linecap="round" stroke-linejoin="round"/>
<path d="M44.0322 39.9215L33.3584 33.8548L44.0322 27.7881L54.7062 33.8548L44.0322 39.9215Z" stroke="#111111" stroke-width="2" stroke-linecap="round" stroke-linejoin="round"/>
<path d="M44.0322 39.9215V52.1969L33.6053 46.1302L33.3584 33.8547" stroke="#111111" stroke-width="2" stroke-linecap="round" stroke-linejoin="round"/>
<path d="M44.0322 52.1969L54.4562 46.1302L54.7062 33.8547" stroke="#111111" stroke-width="2" stroke-linecap="round" stroke-linejoin="round"/>
</g>
</g>
<defs>
<clipPath id="clip0_839_1342">
<rect width="80" height="80" fill="white"/>
</clipPath>
</defs>
</svg>
