<svg width="70" height="70" viewBox="0 0 70 70" fill="none" xmlns="http://www.w3.org/2000/svg">
<path d="M14.1221 2.19043L17.1029 17.1033H20.0867V55.8775H23.0704L24.5579 61.8421H29.035V67.8096H40.9642V61.845H45.4383L46.9287 55.8775H49.9125V17.1033H52.8962L55.8771 2.19043H14.1221Z" fill="white"/>
<path d="M49.9128 32.0162H20.0869V55.8774H49.9128V32.0162ZM49.9128 17.1033H20.0869V23.0708H49.9128V17.1033Z" fill="#FFCE84"/>
<path d="M26.0512 37.9838V49.9129M32.0158 37.9838V49.9129M37.9833 37.9838V49.9129M43.9479 37.9838V49.9129M20.0867 32.0163H49.9125M15.3121 8.15793H54.6871M49.9125 17.1033H20.0867V55.8775H49.9125V17.1033ZM52.8962 17.1033H17.1029L14.1221 2.19043H55.8771L52.8962 17.1033ZM45.4412 61.845H24.5579L23.0704 55.8775H46.9287L45.4412 61.845ZM40.9642 61.845H29.035V67.8096H40.9642V61.845Z" stroke="#111111" stroke-width="2.91667" stroke-miterlimit="10" stroke-linecap="round" stroke-linejoin="round"/>
</svg>
