<svg width="70" height="70" viewBox="0 0 70 70" fill="none" xmlns="http://www.w3.org/2000/svg">
<path d="M67.8706 32.1417L59.2956 20.7084H50.7206V10.7042L43.5747 3.55835H19.2789V20.7084H10.7039L2.12891 32.1417L4.98724 55.0084H15.706L12.1331 66.4417H57.8664L54.2935 55.0084H65.0122L67.8706 32.1417Z" fill="white"/>
<path d="M3.02148 39.2876L4.98732 55.0084H15.7061L19.279 43.5751H50.7207L54.2936 55.0084H65.0123L66.9752 39.2876H3.02148Z" fill="#FFCE84"/>
<path d="M50.7206 20.7083H59.2956L67.8706 32.1416H2.12891L10.7039 20.7083H19.2789" stroke="#111111" stroke-width="2.91667" stroke-linecap="round" stroke-linejoin="round"/>
<path d="M13.562 26.425H56.437M20.7078 57.8667H49.2911M23.5661 52.15H46.4328M56.437 37.8583H59.2953M56.437 43.575H59.2953M50.7203 26.425H19.2786V3.55835H43.5745L50.7203 10.7042V26.425ZM57.8661 66.4417H12.1328L19.2786 43.575H50.7203L57.8661 66.4417Z" stroke="#111111" stroke-width="2.91667" stroke-linecap="round" stroke-linejoin="round"/>
<path d="M15.706 55.0083H4.98724L2.12891 32.1416H67.8706L65.0122 55.0083H54.2935" stroke="#111111" stroke-width="2.91667" stroke-linecap="round" stroke-linejoin="round"/>
</svg>
