<svg width="2500" height="1867" viewBox="0 0 2500 1867" fill="none" xmlns="http://www.w3.org/2000/svg">
<g clip-path="url(#clip0_711_4718)">
<g opacity="0.4">
<mask id="path-1-inside-1_711_4718" fill="white">
<path d="M-409.046 1600.33C-133.183 1867.09 35.5474 2038.81 198.135 1613.85C360.723 1188.88 430.784 569.789 699.774 597.591C968.764 625.393 1416.15 1410.43 1642.53 1253.05C1868.9 1095.67 1691.15 155.119 1913.53 19.8141C2135.92 -115.491 2499.45 628.375 2696.45 520.246C2893.44 412.118 2842.89 -626.121 3217.55 -810.151"/>
<path d="M-420.387 1616.44C-148.863 1877.63 18.5363 2037.7 179.019 1624C272.062 1386.09 335.551 1086.09 421.462 879.215C486.068 723.227 564.849 619.331 679.627 631.067C945.782 658.244 1386.08 1414.71 1612.33 1263.25C1837.12 1111.87 1674.53 196.195 1896.87 54.3C2116.03 -85.5748 2471.62 618.898 2667.67 511.635C2873.73 399.466 2853.49 -618.186 3221.41 -815.3"/>
<path d="M-431.729 1632.56C-164.543 1888.21 0.407532 2036.12 159.946 1634.15C252.816 1400.04 317.808 1105.53 403.162 904.325C467.037 752.954 545.732 653.098 659.522 664.546C922.885 691.097 1356.35 1419.67 1582.13 1273.44C1805.67 1128.71 1657.95 237.37 1880.2 88.7892C2096.18 -55.5589 2443.74 609.375 2638.89 503.026C2853.97 386.865 2864.1 -610.296 3225.32 -820.493"/>
<path d="M-443.066 1648.67C-180.219 1898.74 -17.116 2034.77 140.833 1644.29C233.875 1414.23 300.027 1124.91 384.865 929.48C448.053 782.727 526.619 686.864 639.422 698.071C899.949 724.045 1326.41 1424.29 1551.98 1283.74C1774.06 1145.31 1641.41 278.736 1863.58 123.421C2085.75 -31.8942 2415.73 599.466 2610.15 494.56C2834.04 373.781 2874.76 -602.216 3229.23 -825.496"/>
<path d="M-454.364 1664.83C-195.856 1909.33 -34.5135 2033.52 121.76 1654.49C214.974 1428.42 282.63 1144.58 366.565 954.638C429.324 812.695 507.504 720.631 619.318 731.598C877.01 756.947 1296.47 1428.95 1521.82 1293.98C1742.44 1161.85 1624.87 320.103 1846.95 157.958C2056.62 4.90344 2387.85 589.896 2581.41 486C2814.28 361.036 2885.41 -594.278 3233.14 -830.642"/>
<path d="M-465.706 1680.95C-211.536 1919.86 -51.9552 2032.22 102.643 1664.64C196.029 1442.56 264.93 1164.02 348.265 979.745C410.379 842.468 488.387 754.349 599.213 765.075C854.07 789.799 1266.53 1433.52 1491.62 1304.18C1710.74 1178.3 1608.33 361.516 1830.28 192.445C2036.82 35.1576 2359.97 580.275 2552.63 477.389C2794.47 348.241 2896.02 -586.391 3237 -835.789"/>
<path d="M-477.046 1697.06C-227.214 1930.44 -69.3516 2030.92 83.5283 1674.79C177.129 1456.75 247.19 1183.45 329.923 1004.85C391.35 872.24 469.229 788.065 579.067 798.551C831.132 822.649 1236.51 1438.04 1461.42 1314.42C1679.04 1194.8 1591.79 403.024 1813.62 227.026C2017.06 65.6029 2332.05 570.797 2523.81 468.873C2774.63 335.588 2906.59 -578.36 3240.87 -840.89"/>
<path d="M-488.387 1713.22C-242.894 1941.02 -86.7064 2029.67 64.4124 1684.99C158.271 1470.94 229.492 1202.98 311.623 1030.06C372.406 902.112 450.113 821.929 558.963 832.126C808.193 855.599 1206.48 1442.66 1431.27 1324.72C1656.06 1206.78 1575.3 444.681 1796.99 261.612C1997.38 96.1 2304.22 561.323 2495.07 460.361C2754.91 322.94 2917.28 -570.374 3244.78 -845.938"/>
<path d="M-499.683 1729.34C-258.528 1951.56 -103.973 2028.42 45.3414 1695.14C139.415 1485.13 211.795 1222.41 293.326 1055.17C353.464 931.886 431.042 855.648 538.861 865.604C785.256 888.5 1176.5 1447.18 1401.07 1334.92C1615.59 1227.7 1558.85 486.336 1780.33 296.1C1977.71 126.596 2276.38 551.752 2466.29 451.752C2735.11 310.194 2927.89 -562.437 3248.65 -851.133"/>
<path d="M-511.023 1745.45C-274.208 1962.09 -121.199 2027.17 26.2685 1705.29C120.643 1499.27 194.097 1241.84 275.069 1080.27C334.52 961.659 411.969 889.365 518.8 899.081C762.36 921.351 1146.47 1451.65 1370.96 1345.11C1583.93 1244.05 1542.48 528.038 1763.75 330.635C1958.17 157.187 2248.59 542.275 2437.6 443.189C2715.43 297.542 2938.59 -554.501 3252.64 -856.232"/>
<path d="M-522.364 1761.56C-289.887 1972.67 -138.425 2025.97 7.15265 1715.43C101.827 1513.46 176.356 1261.32 256.726 1105.38C315.49 991.385 392.81 923.083 498.654 932.559C739.378 954.204 1116.4 1456.08 1340.76 1355.36C1552.15 1260.46 1526.11 569.837 1747.12 365.171C1938.58 187.875 2220.75 532.8 2408.86 434.627C2695.72 284.94 2949.24 -546.516 3256.55 -861.379"/>
<path d="M-533.704 1777.72C-305.522 1983.25 -155.563 2024.81 -11.962 1725.63C83.0564 1527.7 158.573 1280.8 238.428 1130.59C296.504 1021.25 373.696 956.897 478.551 966.132C716.484 987.152 1086.33 1460.6 1310.56 1365.65C1520.36 1276.86 1509.75 611.731 1730.46 399.755C1918.99 218.658 2192.92 523.372 2380.04 426.114C2675.92 272.338 2959.81 -538.532 3260.37 -866.43"/>
<path d="M-545.045 1793.84C-321.202 1993.79 -172.661 2023.61 -31.078 1735.78C64.284 1541.94 140.831 1300.24 220.085 1155.7C277.474 1051.03 354.537 990.664 458.404 999.611C693.502 1020.01 1056.18 1464.98 1280.36 1375.85C1488.57 1293.12 1493.47 653.628 1713.79 434.292C1899.44 249.443 2165.08 513.897 2351.25 417.553C2656.2 259.737 2970.42 -530.594 3264.28 -871.575"/>
<path d="M-556.342 1809.95C-336.837 2004.32 -189.671 2022.46 -50.1499 1745.93C45.5987 1556.18 123.091 1319.67 201.829 1180.8C258.531 1080.8 335.465 1024.38 438.344 1033.09C670.606 1052.91 1026.15 1469.31 1250.25 1386.09C1456.83 1309.37 1477.27 695.618 1697.21 468.827C1880.07 280.227 2137.29 504.469 2322.56 408.99C2636.52 247.182 2981.12 -522.611 3268.23 -876.675"/>
<path d="M-567.682 1826.11C-352.516 2014.95 -206.681 2021.4 -69.2647 1756.13C26.9135 1570.46 105.308 1339.15 183.488 1205.96C239.502 1110.58 316.307 1058.15 418.198 1066.61C647.626 1085.81 995.998 1473.64 1220.01 1396.34C1424.96 1325.63 1461.04 737.658 1680.5 503.363C1860.57 311.108 2109.41 495.042 2293.74 400.429C2616.77 234.629 2991.68 -514.673 3272.06 -881.82"/>
<path d="M-579.023 1842.23C-368.196 2025.49 -223.607 2020.34 -88.3385 1766.28C8.31219 1584.7 87.5657 1358.53 165.23 1231.12C220.514 1140.4 297.233 1091.91 398.137 1100.14C624.772 1118.71 965.884 1477.96 1189.9 1406.58C1393.17 1341.84 1444.97 779.793 1663.92 537.947C1841.24 342.083 2081.66 485.662 2265.04 391.915C2597.13 222.122 3002.38 -506.641 3276.05 -886.92"/>
<path d="M-590.363 1858.34C-383.874 2036.02 -240.445 2019.28 -107.453 1776.43C-10.3303 1599.03 69.7394 1377.96 146.888 1256.22C201.442 1170.12 278.075 1125.63 377.991 1133.62C601.791 1151.56 935.73 1482.15 1159.7 1416.78C1361.34 1357.95 1428.91 821.881 1647.25 572.434C1821.87 372.963 2053.83 476.186 2236.26 383.305C2577.42 209.568 3013.03 -498.753 3279.92 -892.066"/>
<path d="M-601.703 1874.5C-399.553 2046.6 -257.283 2018.32 -126.568 1786.62C-28.8867 1613.41 51.9133 1397.4 128.59 1281.38C182.413 1199.9 258.961 1159.45 357.888 1167.14C578.853 1184.46 905.575 1486.38 1129.55 1427.07C1329.51 1374.12 1412.88 864.112 1630.63 607.018C1802.58 403.988 2026.04 466.855 2207.48 374.791C2557.7 197.11 3023.64 -490.72 3283.78 -897.165"/>
<path d="M-613 1890.61C-415.188 2057.18 -273.949 2017.4 -145.64 1796.77C-47.3573 1627.75 34.1301 1416.78 110.291 1306.53C163.384 1229.67 239.846 1193.21 337.785 1200.67C555.915 1217.41 875.464 1490.52 1099.35 1437.32C1297.63 1390.18 1396.9 906.343 1613.96 641.601C1783.29 435.011 1998.24 457.474 2178.7 366.276C2538.03 184.651 3034.25 -482.737 3287.65 -902.217"/>
<path d="M-624.342 1906.73C-430.869 2067.72 -290.661 2016.49 -164.757 1806.92C-65.7868 1642.18 16.2589 1436.17 91.9901 1331.64C144.31 1259.4 220.729 1226.93 317.68 1234.15C533.018 1250.26 845.307 1494.61 1069.19 1447.52C1265.8 1406.15 1381.05 948.576 1597.34 676.089C1764.09 465.988 1970.45 448.047 2149.96 357.667C2518.39 172.145 3044.9 -474.8 3291.6 -907.411"/>
<path d="M-635.684 1922.84C-446.549 2078.25 -307.286 2015.68 -183.874 1817.07C-84.2162 1656.66 -1.61214 1455.5 73.6465 1356.75C125.194 1289.08 201.569 1260.65 297.49 1267.62C509.992 1283.11 815.065 1498.6 1038.95 1457.76C1233.93 1422.17 1365.16 990.905 1580.62 710.627C1744.84 497.063 1942.74 439.054 2121.14 349.107C2498.98 160.555 3055.47 -466.861 3295.42 -912.508"/>
<path d="M-647.021 1939C-462.225 2088.83 -323.822 2014.95 -202.987 1827.27C-102.513 1671.23 -19.4793 1474.89 55.3498 1381.91C106.124 1318.85 182.456 1294.41 277.389 1301.15C487.056 1316.01 784.955 1502.59 1008.76 1468.01C1202.06 1438.14 1349.35 1033.28 1563.96 745.209C1725.69 528.133 1914.87 429.625 2092.36 340.592C2479.31 147.999 3066.13 -458.927 3299.33 -917.656"/>
<path d="M-658.319 1955.12C-477.862 2099.42 -340.274 2014.28 -222.017 1837.42C-120.684 1685.85 -37.3065 1494.18 37.0931 1407.07C87.0507 1348.53 163.383 1328.23 257.328 1334.68C464.16 1348.91 754.843 1506.54 978.643 1478.25C1170.31 1454.01 1333.72 1075.66 1547.38 779.746C1706.62 559.207 1887.12 420.15 2063.62 332.031C2459.55 135.398 3076.74 -450.941 3303.24 -922.754"/>
<path d="M-669.659 1971.23C-493.54 2109.95 -356.683 2013.65 -241.131 1847.56C-138.854 1700.52 -55.2614 1513.46 18.7515 1432.17C67.936 1378.2 144.226 1361.95 237.182 1368.15C441.18 1381.81 724.688 1510.38 948.445 1488.45C1138.48 1469.83 1318.04 1117.98 1530.71 814.232C1687.54 590.278 1859.24 410.672 2034.84 323.419C2439.83 122.842 3087.39 -443.006 3307.15 -927.902"/>
<path d="M-681 1987.39C-351.872 2242.47 -153.631 1615 0.451843 1457.33C154.535 1299.61 592.341 1521.3 918.29 1498.7C1244.2 1476.14 1592.1 519.476 2006.15 314.906C2420.2 110.337 3098 -435.021 3311.02 -933"/>
</mask>
<path d="M179.019 1624L178.088 1623.63L178.087 1623.63L179.019 1624ZM421.462 879.215L422.386 879.599L422.386 879.598L421.462 879.215ZM679.627 631.067L679.526 632.062H679.526L679.627 631.067ZM1612.33 1263.25L1612.88 1264.08L1612.89 1264.07L1612.33 1263.25ZM1896.87 54.3L1897.41 55.1429V55.1429L1896.87 54.3ZM2667.67 511.635L2667.19 510.756L2667.19 510.757L2667.67 511.635ZM159.946 1634.15L160.875 1634.51L160.875 1634.51L159.946 1634.15ZM403.162 904.325L404.082 904.715L404.083 904.714L403.162 904.325ZM659.522 664.546L659.623 663.551H659.622L659.522 664.546ZM1582.13 1273.44L1581.58 1272.6H1581.58L1582.13 1273.44ZM1880.2 88.7892L1879.64 87.9578V87.9578L1880.2 88.7892ZM2638.89 503.026L2638.41 502.146L2638.41 502.148L2638.89 503.026ZM140.833 1644.29L141.76 1644.67H141.76L140.833 1644.29ZM384.865 929.48L385.782 929.879L385.783 929.876L384.865 929.48ZM639.422 698.071L639.521 697.076H639.52L639.422 698.071ZM1551.98 1283.74L1552.5 1284.59H1552.5L1551.98 1283.74ZM2610.15 494.56L2609.68 493.68V493.68L2610.15 494.56ZM121.76 1654.49L120.835 1654.11V1654.11L121.76 1654.49ZM366.565 954.638L365.651 954.234L365.651 954.234L366.565 954.638ZM619.318 731.598L619.416 730.603H619.415L619.318 731.598ZM1521.82 1293.98L1521.31 1293.13V1293.13L1521.82 1293.98ZM1846.95 157.958L1846.36 157.15V157.15L1846.95 157.958ZM2581.41 486L2580.94 485.119V485.119L2581.41 486ZM102.643 1664.64L103.565 1665.03V1665.03L102.643 1664.64ZM348.265 979.745L347.354 979.333V979.333L348.265 979.745ZM599.213 765.075L599.309 764.08H599.309L599.213 765.075ZM1491.62 1304.18L1491.12 1303.31L1491.12 1303.31L1491.62 1304.18ZM1830.28 192.445L1829.68 191.649V191.649L1830.28 192.445ZM2552.63 477.389L2552.16 476.507H2552.16L2552.63 477.389ZM83.5283 1674.79L82.6094 1674.39V1674.39L83.5283 1674.79ZM329.923 1004.85L330.831 1005.27H330.831L329.923 1004.85ZM579.067 798.551L579.162 797.555H579.162L579.067 798.551ZM1461.42 1314.42L1461.91 1315.3V1315.3L1461.42 1314.42ZM1813.62 227.026L1814.24 227.81V227.81L1813.62 227.026ZM2523.81 468.873L2523.34 467.99V467.99L2523.81 468.873ZM64.4124 1684.99L63.4965 1684.59V1684.59L64.4124 1684.99ZM311.623 1030.06L310.72 1029.63V1029.63L311.623 1030.06ZM558.963 832.126L559.057 831.131H559.057L558.963 832.126ZM1796.99 261.612L1797.63 262.383V262.383L1796.99 261.612ZM2495.07 460.361L2494.6 459.477V459.477L2495.07 460.361ZM45.3414 1695.14L46.254 1695.55V1695.55L45.3414 1695.14ZM293.326 1055.17L292.427 1054.73L292.427 1054.73L293.326 1055.17ZM538.861 865.604L538.954 864.609H538.953L538.861 865.604ZM1401.07 1334.92L1400.62 1334.02H1400.62L1401.07 1334.92ZM1780.33 296.1L1779.68 295.342V295.342L1780.33 296.1ZM2466.29 451.752L2466.76 452.637V452.637L2466.29 451.752ZM26.2685 1705.29L27.1776 1705.7V1705.7L26.2685 1705.29ZM275.069 1080.27L274.175 1079.83V1079.83L275.069 1080.27ZM518.8 899.081L518.891 898.085H518.891L518.8 899.081ZM1370.96 1345.11L1370.53 1344.21V1344.21L1370.96 1345.11ZM1763.75 330.635L1763.08 329.889V329.889L1763.75 330.635ZM2437.6 443.189L2437.13 442.303V442.304L2437.6 443.189ZM7.15265 1715.43L8.05811 1715.86V1715.86L7.15265 1715.43ZM256.726 1105.38L255.837 1104.92H255.837L256.726 1105.38ZM498.654 932.559L498.743 931.563H498.743L498.654 932.559ZM1340.76 1355.36L1341.17 1356.27V1356.27L1340.76 1355.36ZM1747.12 365.171L1746.44 364.438V364.438L1747.12 365.171ZM2408.86 434.627L2408.4 433.741V433.741L2408.86 434.627ZM-11.962 1725.63L-12.8635 1725.2L-12.8635 1725.2L-11.962 1725.63ZM238.428 1130.59L239.311 1131.06L239.311 1131.06L238.428 1130.59ZM478.551 966.132L478.639 965.136H478.639L478.551 966.132ZM1310.56 1365.65L1310.17 1364.73H1310.17L1310.56 1365.65ZM1730.46 399.755L1731.15 400.476V400.476L1730.46 399.755ZM2380.04 426.114L2379.57 425.226V425.226L2380.04 426.114ZM-31.078 1735.78L-31.9753 1735.34H-31.9753L-31.078 1735.78ZM220.085 1155.7L220.962 1156.18V1156.18L220.085 1155.7ZM458.404 999.611L458.491 998.615L458.49 998.615L458.404 999.611ZM1280.36 1375.85L1280 1374.92L1280 1374.92L1280.36 1375.85ZM1713.79 434.292L1714.49 435V435L1713.79 434.292ZM2351.25 417.553L2351.71 418.441V418.441L2351.25 417.553ZM-50.1499 1745.93L-51.0427 1745.48H-51.0427L-50.1499 1745.93ZM201.829 1180.8L200.959 1180.31V1180.31L201.829 1180.8ZM438.344 1033.09L438.429 1032.09L438.428 1032.09L438.344 1033.09ZM1250.25 1386.09L1250.6 1387.03V1387.03L1250.25 1386.09ZM1697.21 468.827L1697.93 469.523L1697.93 469.523L1697.21 468.827ZM2322.56 408.99L2323.02 409.879V409.879L2322.56 408.99ZM-69.2647 1756.13L-68.3768 1756.59V1756.59L-69.2647 1756.13ZM183.488 1205.96L182.625 1205.45L182.625 1205.45L183.488 1205.96ZM418.198 1066.61L418.282 1065.62L418.281 1065.62L418.198 1066.61ZM1220.01 1396.34L1219.69 1395.39V1395.39L1220.01 1396.34ZM1680.5 503.363L1681.23 504.047V504.047L1680.5 503.363ZM2293.74 400.429L2293.28 399.54V399.54L2293.74 400.429ZM-88.3385 1766.28L-87.4558 1766.75H-87.4557L-88.3385 1766.28ZM165.23 1231.12L166.084 1231.64H166.084L165.23 1231.12ZM398.137 1100.14L398.218 1099.14H398.218L398.137 1100.14ZM1189.9 1406.58L1189.6 1405.63H1189.6L1189.9 1406.58ZM1663.92 537.947L1663.18 537.275H1663.18L1663.92 537.947ZM2265.04 391.915L2265.5 392.805H2265.5L2265.04 391.915ZM-107.453 1776.43L-106.576 1776.91H-106.576L-107.453 1776.43ZM146.888 1256.22L147.733 1256.76L147.733 1256.76L146.888 1256.22ZM377.991 1133.62L378.071 1132.62H378.07L377.991 1133.62ZM1159.7 1416.78L1159.42 1415.82H1159.42L1159.7 1416.78ZM1647.25 572.434L1646.5 571.775V571.775L1647.25 572.434ZM2236.26 383.305L2236.72 384.196H2236.72L2236.26 383.305ZM-126.568 1786.62L-125.697 1787.11L-125.697 1787.11L-126.568 1786.62ZM128.59 1281.38L129.424 1281.93H129.424L128.59 1281.38ZM357.888 1167.14L357.966 1166.15L357.965 1166.15L357.888 1167.14ZM1129.55 1427.07L1129.8 1428.04V1428.04L1129.55 1427.07ZM1630.63 607.018L1631.39 607.664V607.664L1630.63 607.018ZM2207.48 374.791L2207.03 373.899V373.9L2207.48 374.791ZM-145.64 1796.77L-144.776 1797.27H-144.776L-145.64 1796.77ZM110.291 1306.53L111.114 1307.1H111.114L110.291 1306.53ZM337.785 1200.67L337.862 1199.67H337.861L337.785 1200.67ZM1099.35 1437.32L1099.58 1438.29H1099.58L1099.35 1437.32ZM1613.96 641.601L1614.73 642.235L1614.73 642.234L1613.96 641.601ZM2178.7 366.276L2179.15 367.169H2179.15L2178.7 366.276ZM-164.757 1806.92L-163.9 1807.44V1807.44L-164.757 1806.92ZM91.9901 1331.64L92.7999 1332.23L92.8 1332.23L91.9901 1331.64ZM317.68 1234.15L317.755 1233.15H317.754L317.68 1234.15ZM1069.19 1447.52L1069.4 1448.5H1069.4L1069.19 1447.52ZM1597.34 676.089L1598.12 676.711V676.711L1597.34 676.089ZM2149.96 357.667L2150.41 358.56V358.56L2149.96 357.667ZM-183.874 1817.07L-183.024 1817.6L-183.024 1817.6L-183.874 1817.07ZM73.6465 1356.75L74.4419 1357.36L74.4421 1357.36L73.6465 1356.75ZM297.49 1267.62L297.562 1266.63H297.562L297.49 1267.62ZM1038.95 1457.76L1039.13 1458.75L1039.13 1458.75L1038.95 1457.76ZM1580.62 710.627L1579.83 710.017V710.017L1580.62 710.627ZM2121.14 349.107L2120.69 348.212L2120.69 348.214L2121.14 349.107ZM-202.987 1827.27L-203.828 1826.72L-203.828 1826.73L-202.987 1827.27ZM55.3498 1381.91L54.5709 1381.28L54.5707 1381.28L55.3498 1381.91ZM277.389 1301.15L277.318 1302.15V1302.15L277.389 1301.15ZM1008.76 1468.01L1008.6 1467.02V1467.02L1008.76 1468.01ZM1563.96 745.209L1563.16 744.611V744.611L1563.96 745.209ZM2092.36 340.592L2091.91 339.696L2091.91 339.698L2092.36 340.592ZM-222.017 1837.42L-221.185 1837.97V1837.97L-222.017 1837.42ZM37.0931 1407.07L37.8535 1407.72L37.8538 1407.72L37.0931 1407.07ZM257.328 1334.68L257.396 1333.68H257.396L257.328 1334.68ZM978.643 1478.25L978.768 1479.25H978.768L978.643 1478.25ZM1547.38 779.746L1548.19 780.331V780.331L1547.38 779.746ZM2063.62 332.031L2063.18 331.135L2063.17 331.136L2063.62 332.031ZM-241.131 1847.56L-240.311 1848.14H-240.311L-241.131 1847.56ZM18.7515 1432.17L18.0125 1431.5L18.0121 1431.5L18.7515 1432.17ZM237.182 1368.15L237.249 1367.15H237.249L237.182 1368.15ZM948.445 1488.45L948.348 1487.45V1487.45L948.445 1488.45ZM1530.71 814.232L1529.89 813.658V813.658L1530.71 814.232ZM2034.84 323.419L2034.4 322.523L2034.4 322.524L2034.84 323.419ZM0.451843 1457.33L1.16705 1458.03L1.16718 1458.03L0.451843 1457.33ZM918.29 1498.7L918.221 1497.7H918.221L918.29 1498.7ZM-409.046 1600.33L-409.741 1601.05C-340.788 1667.73 -278.484 1728.51 -221.293 1775.52C-164.117 1822.51 -111.936 1855.83 -63.2095 1867.46C-14.3853 1879.12 30.9084 1868.98 74.1411 1829.27C117.306 1789.61 158.405 1720.49 199.069 1614.21L198.135 1613.85L197.201 1613.49C156.572 1719.69 115.608 1788.46 72.7881 1827.79C30.0353 1867.07 -14.5803 1877.01 -62.7451 1865.51C-111.007 1853.99 -162.895 1820.92 -220.023 1773.97C-277.137 1727.03 -339.373 1666.32 -408.351 1599.61L-409.046 1600.33ZM198.135 1613.85L199.069 1614.21C239.734 1507.92 274.608 1389.51 308.243 1272.14C341.882 1154.76 374.279 1038.44 409.998 936.263C445.722 834.074 484.736 746.141 531.568 685.503C578.382 624.89 632.893 591.684 699.671 598.586L699.774 597.591L699.877 596.596C632.16 589.598 577.042 623.353 529.985 684.281C482.947 745.184 443.849 833.372 408.11 935.603C372.367 1037.85 339.951 1154.24 306.32 1271.59C272.684 1388.96 237.831 1507.3 197.201 1613.49L198.135 1613.85ZM699.774 597.591L699.671 598.586C733.082 602.039 769.344 617.262 807.7 641.043C846.048 664.818 886.424 697.106 928.055 734.61C1011.33 809.627 1099.5 905.401 1186.41 995.459C1273.29 1085.48 1358.91 1169.8 1436.99 1221.77C1515.01 1273.7 1585.95 1293.6 1643.1 1253.87L1642.53 1253.05L1641.96 1252.23C1585.92 1291.19 1516.04 1271.98 1438.1 1220.11C1360.22 1168.28 1274.74 1084.11 1187.85 994.071C1100.99 904.067 1012.73 808.204 929.394 733.125C887.719 695.581 847.244 663.206 808.754 639.343C770.273 615.485 733.713 600.094 699.877 596.596L699.774 597.591ZM1642.53 1253.05L1643.1 1253.87C1671.61 1234.05 1693.69 1201.95 1710.97 1160.81C1728.25 1119.67 1740.76 1069.4 1750.09 1013.15C1768.75 900.657 1774.7 764.04 1780.53 628.196C1786.36 492.315 1792.06 357.21 1810.19 247.62C1819.26 192.828 1831.43 144.463 1848.24 105.594C1865.07 66.719 1886.5 37.4322 1914.05 20.6684L1913.53 19.8141L1913.02 18.9598C1884.97 36.0223 1863.32 65.7256 1846.41 104.8C1829.5 143.88 1817.3 192.424 1808.22 247.294C1790.06 357.029 1784.36 492.268 1778.53 628.11C1772.7 763.989 1766.75 900.474 1748.12 1012.82C1738.8 1069 1726.32 1119.09 1709.12 1160.04C1691.92 1200.99 1670.04 1232.71 1641.96 1252.23L1642.53 1253.05ZM1913.53 19.8141L1914.05 20.6684C1969.09 -12.8177 2033.02 7.95984 2101.4 56.9433C2169.73 105.893 2242.11 182.731 2313.78 260.517C2385.4 338.257 2456.32 416.946 2521.66 469.423C2554.32 495.663 2585.66 515.406 2615.05 525.188C2644.47 534.978 2672 534.807 2696.93 521.123L2696.45 520.246L2695.97 519.37C2671.65 532.718 2644.72 532.955 2615.69 523.29C2586.62 513.617 2555.5 494.042 2522.91 467.864C2457.72 415.505 2386.93 336.958 2315.25 259.161C2243.61 181.409 2171.09 104.409 2102.56 55.3174C2034.08 6.25952 1969.17 -15.2068 1913.02 18.9598L1913.53 19.8141ZM2696.45 520.246L2696.93 521.123C2721.84 507.451 2742.71 479.162 2760.94 440.006C2779.18 400.824 2794.85 350.607 2809.26 292.876C2838.09 177.431 2861.96 31.6927 2891.35 -116.294C2920.76 -264.327 2955.71 -414.658 3006.69 -539.466C3057.69 -664.3 3124.66 -763.411 3217.99 -809.254L3217.55 -810.151L3217.11 -811.049C3123.1 -764.877 3055.89 -665.196 3004.84 -540.223C2953.78 -415.224 2918.8 -264.731 2889.39 -116.684C2859.97 31.4083 2836.13 177.006 2807.32 292.392C2792.92 350.078 2777.29 400.151 2759.13 439.162C2740.95 478.2 2720.31 506.01 2695.97 519.37L2696.45 520.246ZM-420.387 1616.44L-421.08 1617.16C-353.209 1682.45 -291.801 1741.46 -235.374 1786.77C-178.963 1832.06 -127.417 1863.75 -79.2568 1874.28C-31.0031 1884.83 13.7821 1874.12 56.5184 1834.81C99.1921 1795.57 139.813 1727.83 179.952 1624.36L179.019 1624L178.087 1623.63C137.985 1727.01 97.4992 1794.41 55.1646 1833.34C12.8926 1872.22 -31.2328 1882.73 -78.8297 1872.33C-126.52 1861.9 -177.765 1830.46 -234.122 1785.21C-290.464 1739.97 -351.803 1681.03 -419.693 1615.72L-420.387 1616.44ZM179.019 1624L179.951 1624.36C226.491 1505.36 265.636 1370.84 303.875 1240.25C342.12 1109.64 379.455 982.977 422.386 879.599L421.462 879.215L420.539 878.831C377.558 982.331 340.193 1109.11 301.955 1239.69C263.71 1370.3 224.59 1504.73 178.088 1623.63L179.019 1624ZM421.462 879.215L422.386 879.598C454.673 801.643 490.462 736.807 532.453 692.936C574.414 649.094 622.517 626.233 679.526 632.062L679.627 631.067L679.729 630.072C621.96 624.165 573.282 647.384 531.008 691.553C488.761 735.692 452.858 800.799 420.538 878.832L421.462 879.215ZM679.627 631.067L679.526 632.062C712.588 635.438 748.431 650.15 786.322 673.102C824.204 696.048 864.07 727.193 905.169 763.361C987.375 835.704 1074.39 928.033 1160.23 1014.85C1246.04 1101.63 1330.67 1182.92 1408.03 1233.03C1485.33 1283.1 1555.78 1302.31 1612.88 1264.08L1612.33 1263.25L1611.77 1262.41C1555.75 1299.92 1486.32 1281.36 1409.12 1231.35C1331.97 1181.37 1247.47 1100.24 1161.65 1013.44C1075.87 926.681 988.766 834.264 906.49 761.859C865.347 725.653 825.382 694.423 787.358 671.391C749.342 648.363 713.205 633.49 679.729 630.072L679.627 631.067ZM1612.33 1263.25L1612.89 1264.07C1641.2 1245.01 1663.35 1213.96 1680.89 1174.06C1698.43 1134.16 1711.41 1085.33 1721.34 1030.62C1741.19 921.2 1748.89 788.048 1756.51 655.277C1764.14 522.468 1771.68 390.043 1791.2 281.951C1800.96 227.908 1813.71 179.995 1830.94 141.183C1848.17 102.367 1869.84 72.7343 1897.41 55.1429L1896.87 54.3L1896.33 53.457C1868.31 71.3395 1846.43 101.362 1829.11 140.372C1811.79 179.388 1799.01 227.474 1789.24 281.595C1769.69 389.832 1762.14 522.392 1754.52 655.162C1746.89 787.969 1739.2 920.988 1719.37 1030.26C1709.46 1084.9 1696.52 1133.55 1679.06 1173.26C1661.6 1212.96 1639.65 1243.64 1611.77 1262.42L1612.33 1263.25ZM1896.87 54.3L1897.41 55.1429C1951.66 20.5138 2014.5 38.0167 2081.64 82.6654C2148.75 127.294 2219.8 198.805 2290.22 271.434C2360.59 344.019 2430.33 417.722 2494.74 466.555C2526.94 490.974 2557.88 509.226 2586.96 518C2616.06 526.781 2643.35 526.079 2668.15 512.512L2667.67 511.635L2667.19 510.757C2642.97 524.006 2616.26 524.753 2587.54 516.085C2558.79 507.411 2528.07 489.317 2495.95 464.961C2431.69 416.244 2362.08 342.683 2291.65 270.042C2221.27 197.445 2150.07 125.769 2082.75 81C2015.45 36.252 1951.65 18.1488 1896.33 53.457L1896.87 54.3ZM2667.67 511.635L2668.15 512.513C2694.17 498.348 2716.51 469.962 2736.42 430.953C2756.35 391.923 2773.92 342.128 2790.34 284.975C2823.18 170.681 2851.48 26.7341 2884.82 -119.756C2918.16 -266.288 2956.55 -415.403 3009.57 -540.192C3062.61 -665.004 3130.21 -765.304 3221.88 -814.418L3221.41 -815.3L3220.94 -816.181C3128.65 -766.739 3060.82 -665.914 3007.73 -540.974C2954.63 -416.009 2916.21 -266.742 2882.87 -120.2C2849.51 26.3826 2821.24 170.2 2788.42 284.423C2772.01 341.528 2754.49 391.181 2734.64 430.043C2714.79 468.927 2692.68 496.88 2667.19 510.756L2667.67 511.635ZM-431.729 1632.56L-432.42 1633.28C-365.631 1697.19 -305.188 1754.4 -249.613 1797.97C-194.052 1841.53 -143.245 1871.55 -95.7175 1880.94C-48.1014 1890.35 -3.85645 1879.04 38.441 1840.17C80.6808 1801.35 120.971 1735.06 160.875 1634.51L159.946 1634.15L159.016 1633.78C119.151 1734.22 78.9958 1800.18 37.0877 1838.69C-4.7627 1877.16 -48.3679 1888.26 -95.3298 1878.98C-142.38 1869.68 -192.88 1839.91 -248.379 1796.4C-303.863 1752.9 -364.234 1695.76 -431.037 1631.84L-431.729 1632.56ZM159.946 1634.15L160.875 1634.51C207.329 1517.42 246.808 1385.22 285.33 1257.19C323.86 1129.13 361.431 1005.26 404.082 904.715L403.162 904.325L402.241 903.934C359.539 1004.6 321.937 1128.58 283.415 1256.61C244.886 1384.66 205.432 1516.77 159.016 1633.78L159.946 1634.15ZM403.162 904.325L404.083 904.714C436.003 829.071 471.586 766.401 513.336 724.081C555.057 681.79 602.894 659.854 659.422 665.541L659.522 664.546L659.622 663.551C602.36 657.79 553.955 680.059 511.912 722.676C469.898 765.264 434.196 828.208 402.24 903.936L403.162 904.325ZM659.522 664.546L659.422 665.541C692.14 668.84 727.575 683.051 765.01 705.191C802.438 727.327 841.806 757.352 882.384 792.209C963.55 861.932 1049.44 950.879 1134.22 1034.5C1218.97 1118.08 1302.62 1196.35 1379.22 1244.57C1455.78 1292.76 1525.7 1311.18 1582.67 1274.28L1582.13 1273.44L1581.58 1272.6C1525.67 1308.82 1456.74 1291 1380.29 1242.88C1303.89 1194.79 1220.38 1116.67 1135.62 1033.07C1050.9 949.509 964.923 860.474 883.687 790.692C843.065 755.796 803.597 725.688 766.028 703.47C728.467 681.255 692.745 666.891 659.623 663.551L659.522 664.546ZM1582.13 1273.44L1582.67 1274.28C1610.83 1256.05 1633.08 1226.11 1650.91 1187.5C1668.74 1148.89 1682.2 1101.53 1692.74 1048.37C1713.81 942.06 1723.25 812.363 1732.64 682.632C1742.04 552.864 1751.4 423.06 1772.28 316.413C1782.72 263.093 1796.04 215.605 1813.66 176.829C1831.28 138.048 1853.18 108.052 1880.75 89.6205L1880.2 88.7892L1879.64 87.9578C1851.65 106.672 1829.55 137.032 1811.84 176.001C1794.13 214.975 1780.77 262.63 1770.32 316.029C1749.4 422.82 1740.04 552.756 1730.65 682.487C1721.25 812.255 1711.82 941.818 1690.77 1047.98C1680.25 1101.06 1666.84 1148.25 1649.09 1186.66C1631.35 1225.08 1609.31 1254.65 1581.58 1272.6L1582.13 1273.44ZM1880.2 88.7892L1880.75 89.6206C1934.25 53.8698 1995.99 68.1085 2061.9 108.425C2127.79 148.733 2197.5 214.91 2266.66 282.374C2335.77 349.794 2404.32 418.5 2467.81 463.683C2531.22 508.817 2590.01 530.802 2639.36 503.904L2638.89 503.026L2638.41 502.148C2590.19 528.425 2532.36 507.174 2468.96 462.054C2405.64 416.984 2337.22 348.419 2268.05 280.942C2198.93 213.51 2129.06 147.165 2062.94 106.719C1996.84 66.2821 1934.14 51.5345 1879.64 87.9578L1880.2 88.7892ZM2638.89 503.026L2639.36 503.906C2666.49 489.253 2690.29 460.771 2711.89 421.912C2733.51 383.037 2752.98 333.666 2771.41 277.089C2808.26 163.946 2840.99 21.7811 2878.27 -123.221C2915.55 -268.26 2957.39 -416.172 3012.46 -540.948C3067.54 -665.747 3135.8 -767.241 3225.82 -819.629L3225.32 -820.493L3224.82 -821.357C3134.23 -768.646 3065.76 -666.672 3010.63 -541.755C2955.49 -416.816 2913.62 -268.765 2876.33 -123.719C2839.04 21.3636 2806.33 163.407 2769.51 276.47C2751.09 332.996 2731.67 382.229 2710.15 420.941C2688.62 459.669 2665.05 487.76 2638.41 502.146L2638.89 503.026ZM-443.066 1648.67L-443.756 1649.4C-378.048 1711.91 -318.533 1767.34 -263.762 1809.19C-209.005 1851.04 -158.883 1879.4 -111.954 1887.67C-64.941 1895.96 -21.2213 1884.06 20.6035 1845.61C62.3753 1807.21 102.253 1742.34 141.76 1644.67L140.833 1644.29L139.906 1643.92C100.438 1741.49 60.697 1806.04 19.2499 1844.14C-22.1442 1882.19 -65.2437 1893.87 -111.606 1885.7C-158.052 1877.52 -207.862 1849.39 -262.548 1807.6C-317.22 1765.82 -376.661 1710.47 -442.377 1647.95L-443.066 1648.67ZM140.833 1644.29L141.76 1644.67C188.3 1529.59 228.112 1399.7 266.881 1274.2C305.658 1148.67 343.39 1027.53 385.782 929.879L384.865 929.48L383.948 929.082C341.503 1026.86 303.739 1148.1 264.97 1273.61C226.194 1399.13 186.408 1528.94 139.906 1643.92L140.833 1644.29ZM384.865 929.48L385.783 929.876C417.358 856.546 452.734 796.03 494.239 755.254C535.714 714.507 583.276 693.498 639.323 699.067L639.422 698.071L639.52 697.076C582.765 691.438 534.643 712.756 492.837 753.827C451.061 794.87 415.561 855.662 383.947 929.085L384.865 929.48ZM639.422 698.071L639.322 699.067C671.692 702.294 706.71 716.003 743.682 737.325C780.646 758.643 819.508 787.538 859.557 821.071C939.664 888.146 1024.4 973.675 1108.12 1054.07C1191.8 1134.43 1274.47 1209.67 1350.35 1256.03C1426.18 1302.35 1495.6 1320.05 1552.5 1284.59L1551.98 1283.74L1551.45 1282.89C1495.57 1317.7 1427.1 1300.57 1351.39 1254.32C1275.72 1208.1 1193.2 1133 1109.5 1052.63C1025.84 972.287 941.017 886.67 860.841 819.537C820.747 785.966 781.786 756.991 744.681 735.593C707.583 714.198 672.283 700.343 639.521 697.076L639.422 698.071ZM1551.98 1283.74L1552.5 1284.59C1580.48 1267.15 1602.81 1238.28 1620.91 1200.94C1639.02 1163.59 1652.95 1117.7 1664.09 1066.09C1686.37 962.88 1697.56 836.66 1708.74 709.998C1719.93 583.3 1731.11 456.157 1753.37 350.984C1764.5 298.4 1778.39 251.349 1796.42 212.614C1814.44 173.875 1836.58 143.518 1864.15 124.24L1863.58 123.421L1863 122.601C1835.04 142.152 1812.72 172.85 1794.6 211.771C1776.49 250.695 1762.56 297.908 1751.41 350.569C1729.12 455.886 1717.93 583.16 1706.75 709.822C1695.56 836.521 1684.38 962.605 1662.13 1065.67C1651.01 1117.19 1637.13 1162.92 1619.11 1200.07C1601.1 1237.22 1578.99 1265.72 1551.45 1282.89L1551.98 1283.74ZM1863.58 123.421L1864.15 124.24C1919.24 85.7309 1981.06 95.8857 2046.14 131.517C2111.23 167.157 2179.29 228.149 2246.59 290.819C2313.84 353.444 2380.33 417.747 2442.16 459.813C2503.93 501.841 2561.47 521.962 2610.63 495.44L2610.15 494.56L2609.68 493.68C2561.62 519.611 2505 500.152 2443.28 458.159C2381.62 416.203 2315.27 352.043 2247.95 289.355C2180.68 226.713 2112.44 165.543 2047.1 129.763C1981.74 93.9751 1919 83.453 1863 122.601L1863.58 123.421ZM2610.15 494.56L2610.63 495.44C2638.84 480.219 2664.08 451.583 2687.35 412.835C2710.63 374.074 2732 325.102 2752.43 269.089C2793.28 157.073 2830.45 16.7148 2871.68 -126.754C2912.92 -270.255 2958.22 -416.898 3015.35 -541.609C3072.49 -666.342 3141.4 -768.988 3229.76 -824.65L3229.23 -825.496L3228.7 -826.342C3139.83 -770.364 3070.72 -667.281 3013.53 -542.442C2956.33 -417.582 2911 -270.811 2869.76 -127.306C2828.51 16.2319 2791.37 156.474 2750.55 268.404C2730.14 324.364 2708.82 373.201 2685.64 411.805C2662.44 450.422 2637.43 478.706 2609.68 493.68L2610.15 494.56ZM-454.364 1664.83L-455.051 1665.56C-390.426 1726.68 -331.833 1780.32 -277.859 1820.47C-223.899 1860.6 -174.453 1887.32 -128.117 1894.47C-81.7029 1901.64 -38.5059 1889.16 2.84229 1851.13C44.1421 1813.15 83.5952 1749.68 122.684 1654.87L121.76 1654.49L120.835 1654.11C81.7879 1748.82 42.4706 1811.97 1.48846 1849.66C-39.4453 1887.3 -82.0419 1899.56 -127.812 1892.5C-173.659 1885.42 -222.786 1858.94 -276.666 1818.86C-330.533 1778.8 -389.048 1725.23 -453.677 1664.11L-454.364 1664.83ZM121.76 1654.49L122.684 1654.87C169.311 1541.79 209.541 1414.27 248.595 1291.32C287.657 1168.35 325.538 1049.96 367.48 955.042L366.565 954.638L365.651 954.234C323.656 1049.27 285.742 1167.77 246.689 1290.72C207.628 1413.69 167.423 1541.12 120.835 1654.11L121.76 1654.49ZM366.565 954.638L367.48 955.042C398.838 884.12 434.008 825.757 475.235 786.501C516.433 747.274 563.655 727.144 619.22 732.594L619.318 731.598L619.415 730.603C563.166 725.086 515.391 745.504 473.856 785.053C432.35 824.573 397.052 883.213 365.651 954.234L366.565 954.638ZM619.318 731.598L619.22 732.594C683.314 738.898 757.639 785.461 836.726 849.92C915.776 914.348 999.364 996.464 1082.02 1073.64C1164.63 1150.78 1246.32 1223 1321.46 1267.48C1396.57 1311.93 1465.49 1328.89 1522.33 1294.84L1521.82 1293.98L1521.31 1293.13C1465.47 1326.57 1397.46 1310.13 1322.48 1265.75C1247.55 1221.4 1166.01 1149.33 1083.38 1072.18C1000.79 995.057 917.109 912.854 837.99 848.37C758.91 783.916 684.168 736.973 619.416 730.603L619.318 731.598ZM1521.82 1293.98L1522.33 1294.84C1550.13 1278.19 1572.53 1250.41 1590.92 1214.34C1609.3 1178.26 1623.69 1133.82 1635.44 1083.77C1658.93 983.664 1671.86 860.923 1684.83 737.33C1697.81 613.702 1710.82 489.218 1734.46 385.508C1758.11 281.737 1792.35 199.065 1847.54 158.765L1846.95 157.958L1846.36 157.15C1790.52 197.923 1756.17 281.274 1732.51 385.063C1708.84 488.914 1695.82 613.528 1682.84 737.122C1669.87 860.751 1656.95 983.355 1633.49 1083.31C1621.77 1133.28 1607.42 1177.55 1589.13 1213.43C1570.85 1249.31 1548.67 1276.74 1521.31 1293.13L1521.82 1293.98ZM1846.95 157.958L1847.54 158.765C1899.52 120.823 1959.08 128.526 2022.5 160.15C2085.93 191.782 2152.95 247.225 2219.57 304.304C2286.15 361.34 2352.32 420.01 2413.96 457.903C2475.55 495.771 2532.98 513.13 2581.89 486.881L2581.41 486L2580.94 485.119C2533.06 510.818 2476.51 494.014 2415 456.199C2353.54 418.41 2287.51 359.878 2220.87 302.785C2154.28 245.734 2087.08 190.121 2023.39 158.36C1959.69 126.591 1899.22 118.565 1846.36 157.15L1846.95 157.958ZM2581.41 486L2581.89 486.881C2611.21 471.146 2637.9 442.392 2662.85 403.784C2687.81 365.166 2711.08 316.61 2733.51 261.169C2778.38 150.296 2819.99 11.7248 2865.15 -130.243C2910.33 -272.241 2959.08 -417.661 3018.26 -542.345C3077.44 -667.049 3146.99 -770.876 3233.7 -829.815L3233.14 -830.642L3232.58 -831.469C3145.42 -772.225 3075.68 -668.002 3016.45 -543.202C2957.21 -418.383 2908.43 -272.846 2863.25 -130.849C2818.06 11.1775 2776.49 149.638 2731.66 260.419C2709.24 315.805 2686.03 364.231 2661.17 402.699C2636.3 441.177 2609.83 469.612 2580.94 485.119L2581.41 486ZM-465.706 1680.95L-466.391 1681.68C-402.847 1741.4 -345.176 1793.26 -292 1831.69C-238.836 1870.11 -190.065 1895.18 -144.323 1901.22C-98.5088 1907.27 -55.8345 1894.2 -14.9629 1856.59C25.8647 1819.03 64.8935 1756.98 103.565 1665.03L102.643 1664.64L101.721 1664.25C63.0934 1756.1 24.2003 1817.84 -16.3171 1855.12C-56.7905 1892.36 -98.8843 1905.2 -144.061 1899.24C-189.31 1893.27 -237.754 1868.43 -290.828 1830.07C-343.89 1791.72 -401.48 1739.95 -465.021 1680.22L-465.706 1680.95ZM102.643 1664.64L103.565 1665.03C150.277 1553.94 190.862 1428.75 230.174 1308.33C269.494 1187.88 307.536 1072.23 349.176 980.158L348.265 979.745L347.354 979.333C305.659 1071.53 267.583 1187.29 228.273 1307.71C188.954 1428.15 148.395 1553.26 101.721 1664.25L102.643 1664.64ZM348.265 979.745L349.176 980.158C380.209 911.572 415.172 855.362 456.149 817.645C497.096 779.955 544.033 760.739 599.116 766.071L599.213 765.075L599.309 764.08C543.567 758.685 496.086 778.166 454.794 816.173C413.532 854.153 378.434 910.642 347.354 979.333L348.265 979.745ZM599.213 765.075L599.116 766.071C662.51 772.22 735.87 816.907 813.895 878.713C891.885 940.49 974.324 1019.19 1055.91 1093.14C1137.46 1167.06 1218.16 1236.25 1292.57 1278.85C1366.94 1321.44 1435.36 1337.66 1492.12 1305.05L1491.62 1304.18L1491.12 1303.31C1435.34 1335.37 1367.79 1319.63 1293.56 1277.12C1219.36 1234.63 1138.81 1165.59 1057.25 1091.66C975.727 1017.76 893.197 938.977 815.137 877.145C737.113 815.341 663.344 770.292 599.309 764.08L599.213 765.075ZM1491.62 1304.18L1492.12 1305.05C1519.73 1289.19 1542.21 1262.48 1560.86 1227.68C1579.52 1192.87 1594.38 1149.89 1606.73 1101.39C1631.43 1004.4 1646.12 885.146 1660.88 764.631C1675.65 644.082 1690.5 522.263 1715.52 420.016C1740.55 317.717 1775.7 235.28 1830.89 193.24L1830.28 192.445L1829.68 191.649C1773.89 234.145 1738.61 317.208 1713.57 419.541C1688.52 521.926 1673.66 643.873 1658.9 764.388C1644.13 884.94 1629.46 1004.05 1604.8 1100.9C1592.47 1149.31 1577.65 1192.12 1559.1 1226.73C1540.55 1261.35 1518.29 1287.7 1491.12 1303.31L1491.62 1304.18ZM1830.28 192.445L1830.89 193.24C1882.12 154.229 1940.61 158.691 2002.79 185.996C2065 213.314 2130.68 263.408 2196.04 315.3C2261.35 367.15 2326.34 420.796 2387.04 455.024C2447.71 489.236 2504.45 504.25 2553.1 478.271L2552.63 477.389L2552.16 476.507C2504.48 501.971 2448.58 487.428 2388.02 453.282C2327.49 419.152 2262.66 365.641 2197.28 313.733C2131.95 261.867 2066.08 211.604 2003.59 184.164C1941.07 156.712 1881.72 152.016 1829.68 191.649L1830.28 192.445ZM2552.63 477.389L2553.1 478.271C2583.53 462.022 2611.68 433.149 2638.31 394.682C2664.95 356.207 2690.11 308.067 2714.55 253.199C2763.43 143.471 2809.47 6.68726 2858.58 -133.776C2907.7 -274.267 2959.9 -418.46 3021.12 -543.111C3082.35 -667.779 3152.55 -772.778 3237.59 -834.982L3237 -835.789L3236.41 -836.596C3150.97 -774.101 3080.6 -668.747 3019.33 -543.992C2958.05 -419.22 2905.81 -274.922 2856.7 -134.436C2807.57 6.07635 2761.56 142.754 2712.73 252.385C2688.31 307.197 2663.2 355.212 2636.66 393.544C2610.12 431.883 2582.19 460.469 2552.16 476.507L2552.63 477.389ZM-477.046 1697.06L-477.728 1697.79C-415.267 1756.14 -358.513 1806.22 -306.131 1842.94C-253.76 1879.65 -205.661 1903.07 -160.51 1907.98C-115.293 1912.91 -73.1407 1899.26 -32.7477 1862.07C7.60547 1824.91 46.2046 1764.27 84.4472 1675.18L83.5283 1674.79L82.6094 1674.39C44.4121 1763.37 5.94836 1823.72 -34.1024 1860.59C-74.1134 1897.43 -115.706 1910.85 -160.294 1906C-204.947 1901.14 -252.713 1877.94 -304.983 1841.3C-357.243 1804.67 -413.909 1754.67 -476.363 1696.33L-477.046 1697.06ZM83.5283 1674.79L84.4472 1675.18C131.267 1566.12 172.196 1443.24 211.749 1325.35C251.311 1207.43 289.492 1094.51 330.831 1005.27L329.923 1004.85L329.016 1004.43C287.622 1093.79 249.405 1206.82 209.853 1324.71C170.292 1442.63 129.39 1565.42 82.6094 1674.39L83.5283 1674.79ZM329.923 1004.85L330.831 1005.27C392.24 872.699 469.84 789.128 578.972 799.546L579.067 798.551L579.162 797.555C468.618 787.002 390.461 871.781 329.016 1004.43L329.923 1004.85ZM579.067 798.551L578.972 799.546C641.677 805.541 714.074 848.35 791.037 907.499C867.967 966.622 949.252 1041.9 1029.77 1112.63C1110.24 1183.33 1189.95 1249.49 1263.63 1290.23C1337.28 1330.96 1405.2 1346.46 1461.91 1315.3L1461.42 1314.42L1460.94 1313.55C1405.19 1344.19 1338.1 1329.13 1264.6 1288.48C1191.13 1247.86 1111.57 1181.84 1031.09 1111.13C950.633 1040.45 869.255 965.09 792.256 905.913C715.289 846.761 642.49 803.609 579.162 797.555L579.067 798.551ZM1461.42 1314.42L1461.91 1315.3C1489.32 1300.23 1511.88 1274.6 1530.81 1241.06C1549.74 1207.52 1565.07 1166.01 1578.03 1119.07C1603.94 1025.19 1620.38 909.434 1636.93 792.004C1653.49 674.54 1670.18 555.392 1696.58 454.612C1722.98 353.789 1759.06 271.591 1814.24 227.81L1813.62 227.026L1813 226.243C1757.27 270.461 1721.06 353.234 1694.64 454.106C1668.21 555.021 1651.51 674.294 1634.95 791.725C1618.39 909.192 1601.97 1024.81 1576.1 1118.53C1563.17 1165.39 1547.89 1206.74 1529.07 1240.08C1510.25 1273.43 1487.93 1298.71 1460.94 1313.55L1461.42 1314.42ZM1813.62 227.026L1814.24 227.81C1864.72 187.752 1922.15 188.985 1983.09 211.983C2044.08 234.997 2108.42 279.745 2172.51 326.446C2236.54 373.108 2300.33 421.722 2360.1 452.274C2419.85 482.818 2475.89 495.478 2524.28 469.756L2523.81 468.873L2523.34 467.99C2475.85 493.231 2420.61 480.963 2361.01 450.493C2301.42 420.032 2237.8 371.548 2173.68 324.829C2109.62 278.15 2045.08 233.236 1983.8 210.112C1922.47 186.971 1864.23 185.589 1813 226.243L1813.62 227.026ZM2523.81 468.873L2524.28 469.756C2555.81 452.998 2585.41 424.01 2613.73 385.689C2642.04 347.362 2669.11 299.642 2695.55 245.349C2748.44 136.772 2798.92 1.77747 2851.97 -137.185C2905.04 -276.172 2960.7 -419.145 3023.97 -543.775C3087.25 -668.42 3158.09 -774.608 3241.49 -840.103L3240.87 -840.89L3240.25 -841.676C3156.51 -775.907 3085.5 -669.402 3022.18 -544.68C2958.86 -419.943 2903.17 -276.875 2850.11 -137.898C2797.03 1.10358 2746.6 135.995 2693.76 244.474C2667.34 298.709 2640.33 346.31 2612.12 384.501C2583.9 422.698 2554.51 451.427 2523.34 467.99L2523.81 468.873ZM-488.387 1713.22L-489.067 1713.96C-427.687 1770.91 -371.849 1819.21 -320.257 1854.21C-268.674 1889.21 -221.244 1910.99 -176.682 1914.78C-132.061 1918.59 -90.4282 1904.35 -50.5157 1867.58C-10.639 1830.85 27.525 1771.61 65.3282 1685.39L64.4124 1684.99L63.4965 1684.59C25.7404 1770.7 -12.2886 1829.65 -51.8708 1866.11C-91.4173 1902.54 -132.51 1916.54 -176.512 1912.79C-220.573 1909.04 -267.664 1887.48 -319.134 1852.56C-370.595 1817.64 -426.34 1769.43 -487.707 1712.49L-488.387 1713.22ZM64.4124 1684.99L65.3282 1685.39C112.277 1578.32 153.56 1457.78 193.361 1342.43C233.17 1227.05 271.49 1116.89 312.527 1030.49L311.623 1030.06L310.72 1029.63C269.626 1116.15 231.269 1226.43 191.47 1341.77C151.662 1457.15 110.406 1577.61 63.4965 1684.59L64.4124 1684.99ZM311.623 1030.06L312.527 1030.49C373.279 902.603 450.703 822.989 558.87 833.122L558.963 832.126L559.057 831.131C449.523 820.869 371.532 901.62 310.72 1029.63L311.623 1030.06ZM558.963 832.126L558.87 833.122C620.875 838.962 692.302 879.893 768.197 936.384C844.062 992.853 924.191 1064.71 1003.63 1132.21C1083.04 1199.69 1161.76 1262.82 1234.72 1301.69C1307.64 1340.55 1375.08 1355.33 1431.73 1325.6L1431.27 1324.72L1430.8 1323.83C1375.06 1353.08 1308.42 1338.7 1235.66 1299.93C1162.92 1261.16 1084.34 1198.17 1004.93 1130.69C925.548 1063.24 845.325 991.3 769.391 934.78C693.487 878.281 621.666 837.027 559.057 831.131L558.963 832.126ZM1431.27 1324.72L1431.73 1325.6C1488.32 1295.91 1525.52 1225.8 1553.03 1134.89C1580.55 1043.91 1598.47 931.8 1616.28 817.742C1634.09 703.649 1651.8 587.601 1678.9 488.633C1706.01 389.63 1742.46 307.94 1797.63 262.383L1796.99 261.612L1796.36 260.841C1740.68 306.818 1704.09 389.041 1676.97 488.105C1649.83 587.204 1632.11 703.377 1614.3 817.434C1596.49 931.526 1578.59 1043.49 1551.11 1134.31C1523.62 1225.18 1486.61 1294.55 1430.8 1323.83L1431.27 1324.72ZM1796.99 261.612L1797.63 262.383C1847.39 221.288 1903.75 219.296 1963.47 237.993C2023.24 256.707 2086.24 296.107 2149.06 337.615C2211.82 379.085 2274.42 422.662 2333.24 449.534C2392.06 476.404 2447.4 486.709 2495.54 461.245L2495.07 460.361L2494.6 459.477C2447.31 484.495 2392.73 474.507 2334.07 447.715C2275.43 420.926 2213.01 377.472 2150.16 335.946C2087.37 294.457 2024.15 254.895 1964.07 236.085C1903.93 217.258 1846.8 219.18 1796.36 260.841L1796.99 261.612ZM2495.07 460.361L2495.54 461.245C2560.79 426.733 2619.78 344.876 2676.66 237.496C2733.57 130.067 2788.48 -3.14124 2845.48 -140.602C2902.49 -278.085 2961.59 -419.836 3026.9 -544.436C3092.22 -669.049 3163.7 -776.41 3245.42 -845.173L3244.78 -845.938L3244.13 -846.704C3162.11 -777.685 3090.48 -670.044 3025.13 -545.364C2959.77 -420.671 2900.63 -278.836 2843.63 -141.368C2786.62 -3.87701 2731.75 129.232 2674.89 236.56C2618.02 343.938 2559.27 425.278 2494.6 459.477L2495.07 460.361ZM-499.683 1729.34L-500.36 1730.07C-440.061 1785.64 -385.137 1832.15 -334.331 1865.45C-283.534 1898.74 -236.767 1918.87 -192.792 1921.55C-148.764 1924.23 -107.651 1909.42 -68.2206 1873.07C-28.8225 1836.75 8.90088 1778.92 46.254 1695.55L45.3414 1695.14L44.4288 1694.73C7.12457 1777.99 -30.4644 1835.54 -69.5762 1871.6C-108.656 1907.63 -149.25 1922.2 -192.67 1919.55C-236.142 1916.9 -282.563 1896.98 -333.235 1863.77C-383.899 1830.57 -438.727 1784.15 -499.005 1728.6L-499.683 1729.34ZM45.3414 1695.14L46.254 1695.55C93.3104 1590.5 134.938 1472.28 174.98 1359.45C215.03 1246.6 253.489 1139.17 294.225 1055.6L293.326 1055.17L292.427 1054.73C251.632 1138.41 213.135 1245.96 173.095 1358.78C133.045 1471.63 91.4457 1589.77 44.4288 1694.73L45.3414 1695.14ZM293.326 1055.17L294.224 1055.6C354.321 932.411 431.611 856.704 538.77 866.6L538.861 865.604L538.953 864.609C430.474 854.591 352.607 931.361 292.427 1054.73L293.326 1055.17ZM538.861 865.604L538.769 866.6C600.076 872.297 670.535 911.356 745.365 965.192C820.168 1019.01 899.143 1087.44 977.516 1151.72C1055.85 1215.97 1133.59 1276.06 1205.8 1313.06C1277.99 1350.05 1344.94 1364.1 1401.52 1335.81L1401.07 1334.92L1400.62 1334.02C1344.92 1361.87 1278.74 1348.18 1206.71 1311.28C1134.71 1274.39 1057.13 1214.42 978.784 1150.17C900.475 1085.95 821.404 1017.44 746.533 963.569C671.688 909.722 600.845 870.36 538.954 864.609L538.861 865.604ZM1401.07 1334.92L1401.52 1335.81C1455.55 1308.81 1492.32 1242 1520.64 1154.43C1548.97 1066.8 1568.92 958.063 1589.07 846.819C1609.23 735.542 1629.6 621.745 1658.76 523.879C1687.93 425.983 1725.84 344.219 1780.98 296.859L1780.33 296.1L1779.68 295.342C1724.08 343.099 1686.03 425.344 1656.84 523.308C1627.64 621.302 1607.26 735.217 1587.11 846.463C1566.95 957.742 1547.02 1066.34 1518.73 1153.81C1490.43 1241.35 1453.86 1307.42 1400.62 1334.02L1401.07 1334.92ZM1780.33 296.1L1780.98 296.859C1830.02 254.749 1885.33 249.539 1943.84 263.945C2002.4 278.364 2064.05 312.416 2125.6 348.723C2187.1 384.997 2248.5 423.527 2306.38 446.711C2364.26 469.896 2418.89 477.843 2466.76 452.637L2466.29 451.752L2465.83 450.867C2418.74 475.661 2364.82 467.964 2307.12 444.854C2249.42 421.743 2188.21 383.328 2126.62 347.001C2065.09 310.707 2003.2 276.502 1944.31 262.003C1885.37 247.489 1829.33 252.699 1779.68 295.342L1780.33 296.1ZM2466.29 451.752L2466.76 452.637C2534.24 417.102 2596.81 335.787 2657.7 229.552C2718.62 123.274 2777.96 -8.14569 2838.91 -144.105C2899.86 -280.084 2962.41 -420.615 3029.77 -545.194C3097.13 -669.785 3169.26 -778.332 3249.32 -850.39L3248.65 -851.133L3247.98 -851.876C3167.66 -779.585 3095.4 -670.793 3028.01 -546.146C2960.61 -421.487 2898.02 -280.882 2837.08 -144.923C2776.13 -8.94238 2716.83 122.381 2655.97 228.557C2595.09 334.774 2532.75 415.623 2465.83 450.867L2466.29 451.752ZM-511.023 1745.45L-511.698 1746.19C-452.481 1800.36 -398.463 1845.09 -348.436 1876.68C-298.416 1908.26 -252.304 1926.75 -208.908 1928.31C-121.954 1931.45 -46.5782 1866.69 27.1776 1705.7L26.2685 1705.29L25.3594 1704.87C-48.3524 1865.76 -123.214 1929.41 -208.836 1926.32C-251.728 1924.77 -297.487 1906.48 -347.369 1874.99C-397.244 1843.5 -451.158 1798.86 -510.348 1744.71L-511.023 1745.45ZM26.2685 1705.29L27.1776 1705.7C74.3846 1602.65 116.356 1486.75 156.634 1376.46C196.921 1266.14 235.508 1161.44 275.963 1080.72L275.069 1080.27L274.175 1079.83C233.658 1160.67 195.032 1265.48 154.755 1375.77C114.469 1486.09 72.5264 1601.91 25.3594 1704.87L26.2685 1705.29ZM275.069 1080.27L275.963 1080.72C335.359 962.217 412.515 890.419 518.71 900.077L518.8 899.081L518.891 898.085C411.424 888.311 333.681 961.101 274.175 1079.83L275.069 1080.27ZM518.8 899.081L518.709 900.077C579.318 905.619 648.805 942.797 722.563 993.973C796.298 1045.13 874.113 1110.14 951.412 1171.19C1028.68 1232.21 1105.42 1289.26 1176.91 1324.4C1248.38 1359.52 1314.84 1372.85 1371.39 1346.02L1370.96 1345.11L1370.53 1344.21C1314.83 1370.64 1249.1 1357.64 1177.8 1322.6C1106.52 1287.57 1029.92 1230.64 952.652 1169.62C875.417 1108.62 797.506 1043.54 723.703 992.33C649.925 941.14 580.063 903.679 518.891 898.085L518.8 899.081ZM1370.96 1345.11L1371.39 1346.02C1425.03 1320.56 1462.48 1256.5 1492.01 1172.06C1521.56 1087.56 1543.27 982.34 1565.22 874.202C1587.19 766.03 1609.39 654.921 1639.93 558.517C1670.48 462.089 1709.31 380.545 1764.41 331.381L1763.75 330.635L1763.08 329.889C1707.56 379.427 1668.59 461.411 1638.02 557.913C1607.45 654.44 1585.22 765.664 1563.26 873.804C1541.3 981.977 1519.62 1087.05 1490.12 1171.4C1460.61 1255.8 1423.38 1319.13 1370.53 1344.21L1370.96 1345.11ZM1763.75 330.635L1764.41 331.381C1812.74 288.268 1867.01 279.844 1924.3 289.967C1981.66 300.1 2041.97 328.808 2102.24 359.915C2162.46 390.992 2222.65 424.471 2279.59 443.959C2336.53 463.452 2390.45 469.035 2438.06 444.075L2437.6 443.189L2437.13 442.304C2390.24 466.886 2336.98 461.491 2280.23 442.067C2223.48 422.64 2163.48 389.266 2103.16 358.138C2042.9 327.039 1982.34 298.19 1924.65 287.997C1866.9 277.794 1811.97 286.278 1763.08 329.889L1763.75 330.635ZM2437.6 443.189L2438.06 444.075C2507.78 407.528 2573.94 326.757 2638.85 221.666C2703.78 116.54 2767.55 -13.0952 2832.44 -147.555C2897.33 -282.035 2963.34 -421.346 3032.74 -545.9C3102.16 -670.462 3174.93 -780.184 3253.33 -855.511L3252.64 -856.232L3251.95 -856.954C3173.33 -781.415 3100.44 -671.483 3031 -546.873C2961.55 -422.255 2895.52 -282.878 2830.64 -148.424C2765.75 -13.9515 2702.01 115.591 2637.15 220.615C2572.26 325.675 2506.33 406.027 2437.13 442.303L2437.6 443.189ZM-522.364 1761.56L-523.037 1762.3C-464.9 1815.1 -411.789 1858.06 -362.542 1887.94C-313.298 1917.82 -267.842 1934.66 -225.029 1935.11C-139.266 1936.02 -64.7555 1871.18 8.05811 1715.86L7.15265 1715.43L6.24719 1715.01C-66.5166 1870.22 -140.526 1934 -225.008 1933.12C-267.317 1932.67 -312.414 1916.02 -361.504 1886.23C-410.589 1856.45 -463.59 1813.58 -521.692 1760.82L-522.364 1761.56ZM7.15265 1715.43L8.05811 1715.86C55.4156 1614.83 97.731 1501.26 138.24 1393.5C178.758 1285.71 217.462 1183.75 257.615 1105.84L256.726 1105.38L255.837 1104.92C215.62 1182.96 176.875 1285.04 136.367 1392.79C95.8506 1500.58 53.5644 1614.07 6.24719 1715.01L7.15265 1715.43ZM256.726 1105.38L257.615 1105.84C316.309 991.978 393.331 924.134 498.565 933.555L498.654 932.559L498.743 931.563C392.289 922.032 314.67 990.792 255.837 1104.92L256.726 1105.38ZM498.654 932.559L498.564 933.555C558.474 938.942 626.992 974.236 699.683 1022.75C772.353 1071.25 849.011 1132.83 925.24 1190.64C1001.43 1248.43 1077.19 1302.46 1147.96 1335.74C1218.7 1369 1284.68 1381.63 1341.17 1356.27L1340.76 1355.36L1340.35 1354.45C1284.67 1379.44 1219.38 1367.11 1148.81 1333.93C1078.26 1300.75 1002.65 1246.84 926.449 1189.05C850.286 1131.28 773.53 1069.63 700.793 1021.08C628.077 972.556 559.195 936.998 498.743 931.563L498.654 932.559ZM1340.76 1355.36L1341.17 1356.27C1394.41 1332.37 1432.54 1271.05 1463.29 1189.74C1494.06 1108.37 1517.54 1006.68 1541.31 901.647C1565.08 796.58 1589.14 688.155 1621.06 593.204C1652.99 498.234 1692.74 416.895 1747.8 365.905L1747.12 365.171L1746.44 364.438C1691 415.78 1651.12 497.518 1619.17 592.567C1587.21 687.635 1563.12 796.171 1539.36 901.205C1515.58 1006.27 1492.13 1107.82 1461.42 1189.03C1430.69 1270.3 1392.8 1330.9 1340.35 1354.45L1340.76 1355.36ZM1747.12 365.171L1747.8 365.905C1795.42 321.812 1848.65 310.18 1904.73 316.027C1960.88 321.879 2019.85 345.243 2078.84 371.143C2137.79 397.019 2196.77 425.436 2252.76 441.221C2308.76 457.012 2361.97 460.229 2409.32 435.514L2408.86 434.627L2408.4 433.741C2361.7 458.112 2309.09 455.028 2253.3 439.297C2197.49 423.56 2138.7 395.234 2079.65 369.312C2020.66 343.415 1961.43 319.926 1904.94 314.038C1848.39 308.143 1794.56 319.883 1746.44 364.438L1747.12 365.171ZM2408.86 434.627L2409.32 435.514C2481.28 397.967 2551.02 317.747 2619.95 213.807C2688.89 109.838 2757.1 -18.0112 2825.92 -150.975C2894.76 -283.958 2964.21 -422.056 3035.66 -546.597C3107.11 -671.144 3180.53 -782.058 3257.26 -860.68L3256.55 -861.379L3255.83 -862.077C3178.92 -783.269 3105.4 -672.177 3033.92 -547.593C2962.45 -423.003 2892.97 -284.845 2824.15 -151.895C2755.32 -18.9258 2687.16 108.834 2618.28 212.702C2549.38 316.6 2479.87 396.444 2408.4 433.741L2408.86 434.627ZM-533.704 1777.72L-534.373 1778.47C-477.307 1829.87 -425.092 1871.05 -376.614 1899.23C-328.139 1927.4 -283.332 1942.61 -241.1 1941.94C-156.522 1940.62 -82.8888 1875.71 -11.0604 1726.06L-11.962 1725.63L-12.8635 1725.2C-84.6366 1874.73 -157.783 1938.64 -241.131 1939.94C-282.862 1940.6 -327.303 1925.58 -375.609 1897.5C-423.913 1869.43 -476.01 1828.34 -533.035 1776.98L-533.704 1777.72ZM-11.962 1725.63L-11.0605 1726.06C36.4692 1627.06 79.1178 1515.81 119.852 1410.58C160.596 1305.32 199.417 1206.1 239.311 1131.06L238.428 1130.59L237.545 1130.12C197.584 1205.29 158.719 1304.63 117.987 1409.85C77.2441 1515.11 34.6252 1626.27 -12.8635 1725.2L-11.962 1725.63ZM238.428 1130.59L239.311 1131.06C297.303 1021.88 374.191 957.944 478.463 967.128L478.551 966.132L478.639 965.136C373.2 955.849 295.705 1020.63 237.545 1130.12L238.428 1130.59ZM478.551 966.132L478.463 967.128C537.687 972.36 605.238 1005.77 676.859 1051.62C748.463 1097.46 823.958 1155.6 899.108 1210.19C974.224 1264.75 1048.99 1315.74 1119.01 1347.15C1189.03 1378.55 1254.51 1390.47 1310.95 1366.57L1310.56 1365.65L1310.17 1364.73C1254.5 1388.3 1189.67 1376.65 1119.83 1345.33C1050.01 1314.01 975.4 1263.13 900.283 1208.57C825.201 1154.03 749.607 1095.81 677.938 1049.93C606.286 1004.07 538.382 970.414 478.639 965.136L478.551 966.132ZM1310.56 1365.65L1310.95 1366.57C1363.8 1344.21 1402.6 1285.64 1434.57 1207.46C1466.56 1129.23 1491.81 1031.06 1517.39 929.14C1542.97 827.185 1568.88 721.449 1602.18 627.953C1635.49 534.441 1676.14 453.305 1731.15 400.476L1730.46 399.755L1729.76 399.033C1674.42 452.193 1633.63 533.689 1600.3 627.282C1566.96 720.889 1541.02 826.731 1515.45 928.653C1489.86 1030.61 1464.64 1128.62 1432.72 1206.7C1400.77 1284.83 1362.23 1342.7 1310.17 1364.73L1310.56 1365.65ZM1730.46 399.755L1731.15 400.476C1824.93 310.398 1939.94 341.03 2055.44 382.436C2113.1 403.107 2170.87 426.457 2225.9 438.536C2280.94 450.619 2333.42 451.47 2380.5 427.001L2380.04 426.114L2379.57 425.226C2333.09 449.386 2281.16 448.619 2226.33 436.582C2171.47 424.54 2113.89 401.266 2056.12 380.553C1940.74 339.191 1824.52 308.015 1729.76 399.033L1730.46 399.755ZM2380.04 426.114L2380.5 427.001C2454.69 388.441 2528.02 308.76 2600.96 205.969C2673.92 103.152 2746.56 -22.9133 2819.32 -154.378C2892.1 -285.862 2964.99 -422.738 3038.49 -547.254C3111.99 -671.773 3186.04 -783.859 3261.11 -865.754L3260.37 -866.43L3259.64 -867.105C3184.42 -785.051 3110.28 -672.817 3036.77 -548.271C2963.25 -423.723 2890.33 -286.79 2817.57 -155.347C2744.81 -23.8848 2672.21 102.094 2599.33 204.811C2526.43 307.554 2453.32 386.898 2379.57 425.226L2380.04 426.114ZM-545.045 1793.84L-545.711 1794.58C-489.726 1844.59 -438.408 1884 -390.699 1910.47C-342.99 1936.94 -298.827 1950.5 -257.171 1948.73C-173.769 1945.17 -101.002 1880.2 -30.1807 1736.22L-31.078 1735.78L-31.9753 1735.34C-102.736 1879.19 -175.031 1943.22 -257.256 1946.73C-298.414 1948.48 -342.205 1935.09 -389.729 1908.72C-437.251 1882.36 -488.443 1843.06 -544.379 1793.09L-545.045 1793.84ZM-31.078 1735.78L-30.1807 1736.22C17.5211 1639.26 60.5137 1530.33 101.473 1427.62C142.443 1324.88 181.37 1228.38 220.962 1156.18L220.085 1155.7L219.208 1155.21C179.546 1227.55 140.573 1324.17 99.6153 1426.88C58.647 1529.61 15.6849 1638.46 -31.9753 1735.34L-31.078 1735.78ZM220.085 1155.7L220.962 1156.18C278.251 1051.69 355.005 991.708 458.318 1000.61L458.404 999.611L458.49 998.615C354.069 989.62 276.697 1050.37 219.208 1155.21L220.085 1155.7ZM458.404 999.611L458.318 1000.61C516.844 1005.68 583.422 1037.21 653.969 1080.39C724.501 1123.56 798.832 1178.27 872.906 1229.62C946.947 1280.95 1020.72 1328.91 1090.02 1358.45C1159.31 1387.99 1224.32 1399.21 1280.73 1376.78L1280.36 1375.85L1280 1374.92C1224.31 1397.06 1159.92 1386.07 1090.81 1356.61C1021.71 1327.15 948.085 1279.3 874.046 1227.98C800.04 1176.68 725.61 1121.89 655.013 1078.68C584.431 1035.48 517.513 1003.73 458.491 998.615L458.404 999.611ZM1280.36 1375.85L1280.73 1376.78C1333.18 1355.94 1372.66 1300.13 1405.86 1225.08C1439.07 1149.98 1466.11 1055.37 1493.5 956.564C1520.9 857.732 1548.66 754.698 1583.33 662.661C1618.01 570.612 1659.57 489.681 1714.49 435L1713.79 434.292L1713.08 433.583C1657.85 488.57 1616.17 569.826 1581.46 661.956C1546.75 754.097 1518.96 857.231 1491.57 956.03C1464.17 1054.86 1437.17 1149.33 1404.03 1224.27C1370.86 1299.25 1331.65 1354.39 1280 1374.92L1280.36 1375.85ZM1713.79 434.292L1714.49 435C1806.88 343.013 1919.16 362.729 2032.06 393.698C2088.44 409.162 2145 427.44 2199.06 435.808C2253.15 444.179 2304.91 442.665 2351.71 418.441L2351.25 417.553L2350.79 416.665C2304.52 440.613 2253.25 442.171 2199.37 433.831C2145.46 425.487 2089.1 407.269 2032.59 391.769C1919.72 360.809 1806.35 340.722 1713.08 433.583L1713.79 434.292ZM2351.25 417.553L2351.71 418.441C2428.16 378.88 2505.08 299.744 2582.04 198.102C2659.01 96.4393 2736.08 -27.8447 2812.78 -157.816C2966.24 -417.824 3118.19 -700.521 3265.04 -870.922L3264.28 -871.575L3263.52 -872.228C3116.52 -701.648 2964.42 -418.69 2811.06 -158.833C2734.36 -28.8715 2657.34 95.3291 2580.44 196.895C2503.53 298.482 2426.82 377.318 2350.79 416.665L2351.25 417.553ZM-556.342 1809.95L-557.005 1810.7C-502.1 1859.32 -451.677 1896.95 -404.733 1921.72C-357.787 1946.49 -314.263 1958.41 -273.182 1955.53C-190.951 1949.75 -119.05 1884.71 -49.2571 1746.38L-50.1499 1745.93L-51.0427 1745.48C-120.77 1883.68 -192.214 1947.83 -273.322 1953.53C-313.91 1956.38 -357.056 1944.61 -403.799 1919.95C-450.544 1895.29 -500.831 1857.77 -555.679 1809.2L-556.342 1809.95ZM-50.1499 1745.93L-49.2571 1746.38C-1.36169 1651.46 41.9643 1544.86 83.1436 1444.66C124.334 1344.44 163.367 1250.66 202.699 1181.3L201.829 1180.8L200.959 1180.31C161.553 1249.81 122.471 1343.71 81.2937 1443.9C40.105 1544.12 -3.18951 1650.64 -51.0427 1745.48L-50.1499 1745.93ZM201.829 1180.8L202.699 1181.3C259.285 1081.5 335.904 1025.42 438.26 1034.08L438.344 1033.09L438.428 1032.09C335.026 1023.34 257.777 1080.11 200.959 1180.31L201.829 1180.8ZM438.344 1033.09L438.259 1034.08C496.089 1039.02 561.696 1068.66 631.173 1109.17C700.637 1149.68 773.808 1200.95 846.809 1249.06C919.777 1297.15 992.56 1342.07 1061.14 1369.76C1129.7 1397.44 1194.23 1407.96 1250.6 1387.03L1250.25 1386.09L1249.9 1385.16C1194.22 1405.83 1130.27 1395.51 1061.89 1367.9C993.512 1340.3 920.874 1295.48 847.909 1247.39C774.979 1199.33 701.708 1147.99 632.18 1107.44C562.665 1066.91 496.73 1037.07 438.429 1032.09L438.344 1033.09ZM1250.25 1386.09L1250.6 1387.03C1302.63 1367.71 1342.79 1314.64 1377.21 1242.73C1411.65 1170.78 1440.47 1079.71 1469.68 984.029C1498.9 888.323 1528.51 787.992 1564.57 697.409C1600.62 606.818 1643.08 526.08 1697.93 469.523L1697.21 468.827L1696.49 468.131C1641.37 524.97 1598.8 605.998 1562.71 696.669C1526.62 787.348 1496.97 887.774 1467.76 983.445C1438.55 1079.15 1409.77 1170.07 1375.41 1241.87C1341.02 1313.7 1301.16 1366.12 1249.9 1385.16L1250.25 1386.09ZM1697.21 468.827L1697.93 469.523C1788.97 375.623 1898.5 384.425 2008.8 404.971C2063.89 415.233 2119.23 428.439 2172.32 433.094C2225.44 437.752 2276.47 433.87 2323.02 409.879L2322.56 408.99L2322.1 408.101C2276.02 431.85 2225.42 435.743 2172.49 431.102C2119.53 426.458 2064.4 413.293 2009.17 403.005C1898.82 382.449 1788.31 373.431 1696.49 468.131L1697.21 468.827ZM2322.56 408.99L2323.02 409.879C2401.7 369.329 2482.21 290.744 2563.18 190.26C2644.16 89.7583 2725.66 -32.7401 2806.31 -161.215C2967.64 -418.223 3125.5 -699.075 3269.01 -876.045L3268.23 -876.675L3267.46 -877.305C3123.85 -700.21 2965.85 -419.135 2804.62 -162.278C2723.98 -33.8204 2642.53 88.5975 2561.62 189.005C2480.7 289.431 2400.4 367.747 2322.1 408.101L2322.56 408.99ZM-567.682 1826.11L-568.341 1826.86C-460.745 1921.3 -370.206 1970.4 -289.219 1962.41C-208.153 1954.41 -137.119 1889.29 -68.3768 1756.59L-69.2647 1756.13L-70.1526 1755.67C-138.826 1888.24 -209.418 1952.53 -289.415 1960.42C-369.49 1968.31 -459.452 1919.77 -567.022 1825.36L-567.682 1826.11ZM-69.2647 1756.13L-68.3768 1756.59C-20.2661 1663.71 23.3932 1559.43 64.7816 1461.76C106.182 1364.05 145.3 1272.99 184.35 1206.47L183.488 1205.96L182.625 1205.45C143.496 1272.12 104.326 1363.31 62.9401 1460.98C21.5418 1558.67 -22.0851 1662.88 -70.1526 1755.67L-69.2647 1756.13ZM183.488 1205.96L184.35 1206.47C240.232 1111.31 316.716 1059.19 418.116 1067.61L418.198 1066.61L418.281 1065.62C315.898 1057.11 238.772 1109.85 182.625 1205.45L183.488 1205.96ZM418.198 1066.61L418.115 1067.61C475.249 1072.39 539.883 1100.14 608.285 1137.98C676.678 1175.81 748.684 1223.64 820.606 1268.51C892.495 1313.36 964.285 1355.24 1032.13 1381.06C1099.97 1406.89 1164.01 1416.72 1220.34 1397.29L1220.01 1396.34L1219.69 1395.39C1164.01 1414.61 1100.5 1404.95 1032.84 1379.19C965.194 1353.44 893.548 1311.66 821.664 1266.81C749.813 1221.99 677.707 1174.09 609.253 1136.23C540.809 1098.36 475.862 1070.43 418.282 1065.62L418.198 1066.61ZM1220.01 1396.34L1220.34 1397.29C1271.96 1379.48 1312.79 1329.16 1348.45 1260.39C1384.12 1191.58 1414.73 1104.06 1445.76 1011.52C1476.8 918.937 1508.28 821.31 1545.71 732.178C1583.14 643.042 1626.48 562.492 1681.23 504.047L1680.5 503.363L1679.77 502.68C1624.78 561.383 1581.32 642.19 1543.86 731.404C1506.4 820.622 1474.89 918.339 1443.86 1010.88C1412.82 1103.45 1382.26 1190.82 1346.67 1259.47C1311.07 1328.15 1270.54 1377.85 1219.69 1395.39L1220.01 1396.34ZM1680.5 503.363L1681.23 504.047C1770.93 408.28 1877.73 406.156 1985.43 416.276C2039.23 421.331 2093.35 429.456 2145.46 430.391C2197.61 431.328 2247.91 425.077 2294.19 401.319L2293.74 400.429L2293.28 399.54C2247.4 423.088 2197.48 429.325 2145.5 428.392C2093.48 427.458 2039.58 419.354 1985.62 414.285C1877.8 404.154 1770.14 406.191 1679.77 502.68L1680.5 503.363ZM2293.74 400.429L2294.19 401.319C2375.13 359.779 2459.23 281.741 2544.21 182.411C2629.2 83.0662 2715.14 -37.6525 2799.73 -164.636C2968.94 -418.663 3132.69 -697.668 3272.85 -881.213L3272.06 -881.82L3271.26 -882.427C3131.05 -698.825 2967.16 -419.606 2798.06 -165.745C2713.49 -38.7845 2627.61 81.8566 2542.69 181.111C2457.76 280.38 2373.86 358.18 2293.28 399.54L2293.74 400.429ZM-579.023 1842.23L-579.679 1842.98C-474.236 1934.64 -385.087 1979.44 -305.22 1969.24C-225.304 1959.04 -155.126 1893.85 -87.4558 1766.75L-88.3385 1766.28L-89.2212 1765.81C-156.819 1892.77 -226.57 1957.18 -305.473 1967.26C-384.423 1977.33 -472.983 1933.08 -578.367 1841.47L-579.023 1842.23ZM-88.3385 1766.28L-87.4557 1766.75C-39.1083 1675.92 4.88446 1573.94 46.4819 1478.79C88.0923 1383.6 127.294 1295.28 166.084 1231.64L165.23 1231.12L164.376 1230.6C125.502 1294.37 86.2444 1382.84 44.6494 1477.99C3.04132 1573.16 -40.918 1675.06 -89.2213 1765.81L-88.3385 1766.28ZM165.23 1231.12L166.084 1231.64C221.217 1141.17 297.61 1092.95 398.055 1101.14L398.137 1100.14L398.218 1099.14C296.857 1090.88 219.811 1139.63 164.376 1230.6L165.23 1231.12ZM398.137 1100.14L398.055 1101.14C454.504 1105.76 518.169 1131.61 585.496 1166.78C652.817 1201.94 723.653 1246.33 794.494 1287.95C865.302 1329.56 936.095 1368.4 1003.21 1392.37C1070.33 1416.33 1133.9 1425.48 1190.2 1407.54L1189.9 1406.58L1189.6 1405.63C1133.89 1423.38 1070.82 1414.39 1003.89 1390.49C936.961 1366.59 866.308 1327.83 795.507 1286.23C724.738 1244.64 653.802 1200.2 586.422 1165.01C519.049 1129.82 455.087 1103.8 398.218 1099.14L398.137 1100.14ZM1189.9 1406.58L1190.2 1407.54C1241.4 1391.23 1282.91 1343.67 1319.8 1278.05C1356.71 1212.39 1389.11 1128.43 1421.97 1039.02C1454.84 949.586 1488.18 854.676 1526.98 767.001C1565.79 679.323 1610.03 598.963 1664.66 538.618L1663.92 537.947L1663.18 537.275C1608.33 597.854 1563.99 678.442 1525.15 766.191C1486.31 853.943 1452.95 948.938 1420.09 1038.33C1387.22 1127.76 1354.87 1211.57 1318.06 1277.07C1281.22 1342.59 1240.03 1389.57 1189.6 1405.63L1189.9 1406.58ZM1663.92 537.947L1664.66 538.618C1753.03 441.006 1857.1 427.943 1962.21 427.637C2014.72 427.484 2067.62 430.522 2118.74 427.737C2169.91 424.95 2219.48 416.331 2265.5 392.805L2265.04 391.915L2264.59 391.025C2218.92 414.373 2169.66 422.961 2118.63 425.74C2067.56 428.522 2014.89 425.484 1962.21 425.637C1856.93 425.944 1752.13 439.024 1663.18 537.275L1663.92 537.947ZM2265.04 391.915L2265.5 392.805C2348.68 350.275 2436.37 272.785 2525.37 174.614C2614.38 76.43 2704.74 -42.5045 2793.27 -167.994C2881.8 -293.485 2968.5 -425.551 3050.16 -550C3131.83 -674.457 3208.46 -791.287 3276.86 -886.336L3276.05 -886.92L3275.24 -887.504C3206.81 -792.413 3130.15 -675.543 3048.49 -551.098C2966.82 -426.644 2880.14 -294.606 2791.64 -169.147C2703.13 -43.6863 2612.82 75.1735 2523.89 173.271C2434.95 271.38 2347.45 348.659 2264.59 391.025L2265.04 391.915ZM-590.363 1858.34L-591.016 1859.1C-487.724 1947.98 -399.943 1988.48 -321.191 1976.07C-242.42 1963.66 -173.11 1898.4 -106.576 1776.91L-107.453 1776.43L-108.331 1775.94C-174.788 1897.3 -243.688 1961.84 -321.502 1974.1C-399.335 1986.36 -486.514 1946.38 -589.711 1857.58L-590.363 1858.34ZM-107.453 1776.43L-106.576 1776.91C-57.9921 1688.17 -13.6765 1588.51 28.1193 1495.87C69.929 1403.19 109.204 1317.56 147.733 1256.76L146.888 1256.22L146.043 1255.69C107.424 1316.63 68.0894 1402.4 26.2962 1495.04C-15.5109 1587.71 -59.7917 1687.29 -108.331 1775.94L-107.453 1776.43ZM146.888 1256.22L147.733 1256.76C202.118 1170.93 278.417 1126.66 377.911 1134.61L377.991 1133.62L378.07 1132.62C277.733 1124.6 200.767 1169.32 146.043 1255.69L146.888 1256.22ZM377.991 1133.62L377.911 1134.61C433.665 1139.08 496.358 1163.04 562.612 1195.52C628.863 1228 698.536 1268.94 768.3 1307.32C838.033 1345.68 907.834 1381.47 974.227 1403.59C1040.61 1425.7 1103.71 1434.17 1159.98 1417.74L1159.7 1416.78L1159.42 1415.82C1103.71 1432.08 1041.07 1423.74 974.859 1401.69C908.652 1379.64 838.987 1343.92 769.264 1305.56C699.571 1267.22 629.799 1226.23 563.493 1193.72C497.19 1161.22 434.217 1137.12 378.071 1132.62L377.991 1133.62ZM1159.7 1416.78L1159.98 1417.74C1210.76 1402.93 1252.96 1358.12 1291.09 1295.63C1329.24 1233.13 1363.44 1152.73 1398.14 1066.46C1432.84 980.164 1468.04 887.971 1508.22 801.749C1548.39 715.527 1593.51 635.35 1648 573.093L1647.25 572.434L1646.5 571.775C1591.82 634.242 1546.61 714.616 1506.41 800.904C1466.2 887.19 1430.97 979.464 1396.28 1065.72C1361.59 1152 1327.44 1232.25 1289.39 1294.59C1251.32 1356.96 1209.46 1401.22 1159.42 1415.82L1159.7 1416.78ZM1647.25 572.434L1648 573.093C1735.07 473.637 1836.41 449.621 1938.93 438.893C1964.57 436.21 1990.27 434.36 2015.84 432.366C2041.41 430.372 2066.86 428.236 2091.95 424.982C2142.13 418.474 2190.96 407.489 2236.72 384.196L2236.26 383.305L2235.81 382.414C2190.34 405.561 2141.76 416.505 2091.69 422.998C2066.65 426.245 2041.25 428.378 2015.69 430.372C1990.13 432.364 1964.39 434.218 1938.72 436.904C1836 447.653 1734.05 471.761 1646.5 571.775L1647.25 572.434ZM2236.26 383.305L2236.72 384.196C2322.15 340.687 2413.44 263.748 2506.45 166.735C2599.47 69.7109 2694.28 -47.444 2786.74 -171.442C2971.67 -419.427 3147.33 -694.882 3280.74 -891.505L3279.92 -892.066L3279.09 -892.628C3145.62 -695.937 2970.03 -420.575 2785.14 -172.637C2692.7 -48.6736 2597.95 68.4094 2505.01 165.35C2412.05 262.302 2320.95 339.054 2235.81 382.414L2236.26 383.305ZM-601.703 1874.5L-602.351 1875.26C-501.21 1961.37 -414.796 1997.58 -337.162 1982.97C-259.537 1968.36 -191.094 1903.03 -125.697 1787.11L-126.568 1786.62L-127.439 1786.13C-192.758 1901.91 -260.807 1966.57 -337.532 1981C-414.25 1995.44 -500.046 1959.73 -601.055 1873.74L-601.703 1874.5ZM-126.568 1786.62L-125.697 1787.11C-76.8331 1700.47 -32.1945 1603.12 9.79413 1512.98C51.7978 1422.8 91.1349 1339.87 129.424 1281.93L128.59 1281.38L127.755 1280.83C89.368 1338.91 49.967 1421.99 7.98114 1512.13C-34.0197 1602.3 -78.6219 1699.57 -127.439 1786.13L-126.568 1786.62ZM128.59 1281.38L129.424 1281.93C183.059 1200.74 259.266 1160.47 357.81 1168.14L357.888 1167.14L357.965 1166.15C258.655 1158.42 181.768 1199.06 127.755 1280.83L128.59 1281.38ZM357.888 1167.14L357.81 1168.14C412.87 1172.45 474.589 1194.51 539.767 1224.31C604.944 1254.11 673.45 1291.6 742.135 1326.73C810.789 1361.85 879.598 1394.61 945.266 1414.87C1010.93 1435.13 1073.55 1442.94 1129.8 1428.04L1129.55 1427.07L1129.29 1426.11C1073.56 1440.87 1011.35 1433.17 945.855 1412.96C880.365 1392.75 811.688 1360.06 743.045 1324.95C674.432 1289.85 605.828 1252.32 540.599 1222.49C475.371 1192.67 413.389 1170.49 357.966 1166.15L357.888 1167.14ZM1129.55 1427.07L1129.8 1428.04C1180.16 1414.71 1223.03 1372.64 1262.41 1313.31C1301.8 1253.95 1337.81 1177.13 1374.33 1094C1447.43 927.659 1522.64 736.07 1631.39 607.664L1630.63 607.018L1629.86 606.372C1520.87 735.061 1445.52 927.02 1372.5 1093.2C1335.97 1176.33 1300.03 1253 1260.75 1312.2C1221.45 1371.42 1178.92 1412.96 1129.29 1426.11L1129.55 1427.07ZM1630.63 607.018L1631.39 607.664C1717.16 506.388 1815.77 471.418 1915.7 450.27C1940.69 444.982 1965.76 440.559 1990.74 436.178C2015.71 431.798 2040.59 427.46 2065.18 422.344C2114.37 412.111 2162.46 398.756 2207.93 375.683L2207.48 374.791L2207.03 373.9C2161.78 396.858 2113.89 410.169 2064.78 420.386C2040.22 425.495 2015.37 429.827 1990.39 434.208C1965.42 438.589 1940.32 443.017 1915.29 448.314C1815.14 469.506 1716.04 504.617 1629.86 606.372L1630.63 607.018ZM2207.48 374.791L2207.93 375.683C2383.26 286.731 2587.42 70.1855 2780.2 -174.782C2973.01 -419.794 3154.55 -693.395 3284.63 -896.626L3283.78 -897.165L3282.94 -897.704C3152.88 -694.49 2971.38 -420.954 2778.63 -176.019C2585.84 68.96 2381.92 285.17 2207.03 373.899L2207.48 374.791ZM-613 1890.61L-613.644 1891.38C-514.652 1974.74 -429.572 2006.67 -353.042 1989.87C-276.545 1973.07 -208.97 1907.66 -144.776 1797.27L-145.64 1796.77L-146.505 1796.27C-210.62 1906.52 -277.819 1971.31 -353.471 1987.92C-429.091 2004.52 -513.537 1973.06 -612.356 1889.85L-613 1890.61ZM-145.64 1796.77L-144.776 1797.27C-95.6101 1712.72 -50.6486 1617.68 -8.47778 1530.04C33.7093 1442.37 73.0867 1362.15 111.114 1307.1L110.291 1306.53L109.468 1305.97C71.3342 1361.17 31.8876 1441.55 -10.28 1529.18C-52.4638 1616.84 -97.3874 1711.8 -146.505 1796.27L-145.64 1796.77ZM110.291 1306.53L111.114 1307.1C163.999 1230.54 240.113 1194.23 337.709 1201.66L337.785 1200.67L337.861 1199.67C239.578 1192.19 162.77 1228.8 109.468 1305.97L110.291 1306.53ZM337.785 1200.67L337.708 1201.66C392.075 1205.84 452.824 1225.99 516.929 1253.11C581.036 1280.22 648.377 1314.25 715.982 1346.12C783.559 1377.99 851.371 1407.69 916.305 1426.1C981.235 1444.51 1043.37 1451.65 1099.58 1438.29L1099.35 1437.32L1099.12 1436.35C1043.38 1449.59 981.62 1442.54 916.85 1424.18C852.085 1405.82 784.398 1376.17 716.835 1344.31C649.301 1312.47 581.863 1278.4 517.709 1251.27C453.553 1224.13 392.56 1203.87 337.862 1199.67L337.785 1200.67ZM1099.35 1437.32L1099.58 1438.29C1149.51 1426.42 1193.07 1387.1 1233.7 1330.92C1274.33 1274.71 1312.15 1201.47 1350.52 1121.49C1427.29 961.469 1506.3 774.485 1614.73 642.235L1613.96 641.601L1613.19 640.967C1504.56 773.458 1425.41 960.765 1348.71 1120.63C1310.35 1200.6 1272.6 1273.7 1232.07 1329.74C1191.54 1385.81 1148.34 1424.65 1099.12 1436.35L1099.35 1437.32ZM1613.96 641.601L1614.73 642.234C1699.24 539.14 1795.11 493.191 1892.47 461.618C1941.18 445.819 1990.19 433.641 2038.42 419.679C2086.61 405.726 2133.95 390.01 2179.15 367.169L2178.7 366.276L2178.25 365.384C2133.22 388.141 2086.02 403.817 2037.86 417.757C1989.74 431.689 1940.6 443.906 1891.85 459.715C1794.28 491.357 1698.02 537.471 1613.19 640.967L1613.96 641.601ZM2178.7 366.276L2179.15 367.169C2359.02 276.254 2573.02 63.8547 2773.67 -178.137C2974.35 -420.163 3161.78 -691.921 3288.51 -901.7L3287.65 -902.217L3286.79 -902.734C3160.12 -693.032 2972.74 -421.357 2772.13 -179.413C2571.49 62.5657 2357.71 274.672 2178.25 365.384L2178.7 366.276ZM-624.342 1906.73L-624.981 1907.5C-528.136 1988.08 -444.39 2015.75 -368.967 1996.75C-293.598 1977.78 -226.891 1912.29 -163.9 1807.44L-164.757 1806.92L-165.614 1806.41C-228.527 1911.13 -294.875 1976.04 -369.455 1994.82C-443.98 2013.58 -527.074 1986.36 -623.702 1905.96L-624.342 1906.73ZM-164.757 1806.92L-163.9 1807.44C-114.389 1725.02 -69.1155 1632.29 -26.7734 1547.14C15.5864 1461.96 54.9929 1384.41 92.7999 1332.23L91.9901 1331.64L91.1804 1331.06C53.2562 1383.4 13.7742 1461.11 -28.5642 1546.25C-70.9204 1631.43 -116.154 1724.08 -165.614 1806.41L-164.757 1806.92ZM91.9901 1331.64L92.8 1332.23C144.892 1260.3 220.956 1227.95 317.606 1235.14L317.68 1234.15L317.754 1233.15C220.502 1225.91 143.729 1258.5 91.1802 1331.06L91.9901 1331.64ZM317.68 1234.15L317.606 1235.14C371.29 1239.16 431.072 1257.41 494.104 1281.84C557.14 1306.27 623.313 1336.83 689.836 1365.45C756.331 1394.06 823.145 1420.72 887.349 1437.28C951.551 1453.83 1013.22 1460.31 1069.4 1448.5L1069.19 1447.52L1068.99 1446.54C1013.23 1458.27 951.899 1451.86 887.849 1435.34C823.802 1418.82 757.106 1392.22 690.626 1363.61C624.174 1335.02 557.906 1304.42 494.827 1279.97C431.745 1255.52 371.74 1237.19 317.755 1233.15L317.68 1234.15ZM1069.19 1447.52L1069.4 1448.5C1118.89 1438.08 1163.15 1401.51 1205.03 1348.47C1246.92 1295.42 1286.56 1225.75 1326.77 1148.94C1407.24 995.231 1490.05 812.856 1598.12 676.711L1597.34 676.089L1596.55 675.467C1488.33 811.808 1405.38 994.465 1325 1148.01C1284.79 1224.82 1245.23 1294.34 1203.46 1347.23C1161.68 1400.14 1117.8 1436.27 1068.99 1446.54L1069.19 1447.52ZM1597.34 676.089L1598.12 676.711C1681.37 571.824 1774.49 514.899 1869.27 472.897C1916.67 451.889 1964.47 434.621 2011.68 416.941C2058.88 399.265 2105.48 381.182 2150.41 358.56L2149.96 357.667L2149.51 356.774C2104.69 379.342 2058.18 397.394 2010.98 415.068C1963.8 432.736 1915.93 450.031 1868.46 471.068C1773.49 513.157 1680.06 570.253 1596.55 675.467L1597.34 676.089ZM2149.96 357.667L2150.41 358.56C2334.81 265.707 2558.65 57.4635 2767.19 -181.556C2975.74 -420.601 3169.08 -690.544 3292.47 -906.916L3291.6 -907.411L3290.73 -907.906C3167.42 -691.667 2974.16 -421.832 2765.68 -182.871C2557.18 56.1155 2333.55 264.105 2149.51 356.774L2149.96 357.667ZM-635.684 1922.84L-636.318 1923.62C-541.618 2001.43 -459.184 2024.84 -384.859 2003.67C-310.608 1982.53 -244.769 1916.96 -183.024 1817.6L-183.874 1817.07L-184.723 1816.54C-246.391 1915.78 -311.89 1980.81 -385.407 2001.75C-458.85 2022.67 -540.614 1999.67 -635.049 1922.07L-635.684 1922.84ZM-183.874 1817.07L-183.024 1817.6C-133.169 1737.35 -87.5826 1646.91 -45.0747 1564.25C-2.5473 1481.54 36.8771 1406.65 74.4419 1357.36L73.6465 1356.75L72.8512 1356.15C35.1573 1405.61 -4.34967 1480.67 -46.8533 1563.33C-89.3766 1646.03 -134.921 1736.38 -184.723 1816.54L-183.874 1817.07ZM73.6465 1356.75L74.4421 1357.36C125.74 1290.01 201.754 1261.67 297.417 1268.62L297.49 1267.62L297.562 1266.63C201.385 1259.63 124.647 1288.14 72.851 1356.15L73.6465 1356.75ZM297.49 1267.62L297.417 1268.62C350.409 1272.48 409.22 1288.82 471.177 1310.55C533.14 1332.29 598.148 1359.38 663.59 1384.75C794.367 1435.44 926.867 1479.22 1039.13 1458.75L1038.95 1457.76L1038.77 1456.78C927.148 1477.14 795.17 1433.6 664.313 1382.88C598.938 1357.55 533.841 1330.42 471.839 1308.67C409.833 1286.92 350.822 1270.51 297.562 1266.63L297.49 1267.62ZM1038.95 1457.76L1039.13 1458.75C1088.21 1449.79 1133.15 1415.96 1176.3 1366.08C1219.45 1316.18 1260.91 1250.11 1302.97 1176.45C1387.13 1029.06 1473.74 851.303 1581.42 711.236L1580.62 710.627L1579.83 710.017C1472.04 850.229 1385.3 1028.24 1301.24 1175.46C1259.18 1249.1 1217.81 1315.03 1174.79 1364.77C1131.76 1414.52 1087.18 1447.94 1038.77 1456.78L1038.95 1457.76ZM1580.62 710.627L1581.42 711.236C1745.46 497.907 1943.03 440.027 2121.59 350L2121.14 349.107L2120.69 348.214C1942.45 438.081 1744.23 496.218 1579.83 710.017L1580.62 710.627ZM2121.14 349.107L2121.58 350.002C2310.67 255.642 2544.36 51.5397 2760.73 -184.614C2977.11 -420.785 3176.28 -689.118 3296.3 -912.034L3295.42 -912.508L3294.54 -912.982C3174.62 -690.251 2975.56 -422.052 2759.25 -185.966C2542.93 50.138 2309.44 254.02 2120.69 348.212L2121.14 349.107ZM-647.021 1939L-647.651 1939.78C-555.095 2014.82 -473.949 2034 -400.715 2010.66C-327.57 1987.35 -262.6 1921.71 -202.146 1827.81L-202.987 1827.27L-203.828 1826.73C-264.209 1920.51 -328.857 1985.66 -401.322 2008.75C-473.698 2031.82 -554.152 2013.01 -646.392 1938.23L-647.021 1939ZM-202.987 1827.27L-202.146 1827.81C-151.881 1749.75 -105.982 1661.61 -63.3189 1581.41C-20.6343 1501.17 18.7859 1428.94 56.1288 1382.54L55.3498 1381.91L54.5707 1381.28C17.0846 1427.86 -22.4266 1500.28 -65.0846 1580.47C-107.764 1660.7 -153.619 1748.75 -203.828 1826.72L-202.987 1827.27ZM55.3498 1381.91L56.1287 1382.54C106.634 1319.81 182.597 1295.43 277.318 1302.15L277.389 1301.15L277.459 1300.15C182.316 1293.4 105.613 1317.89 54.5709 1381.28L55.3498 1381.91ZM277.389 1301.15L277.318 1302.15C329.618 1305.85 387.461 1320.27 448.348 1339.31C509.241 1358.34 573.086 1381.97 637.447 1404.07C766.078 1448.24 896.729 1486.33 1008.91 1469L1008.76 1468.01L1008.6 1467.02C896.981 1484.27 766.783 1446.36 638.097 1402.17C573.8 1380.1 509.87 1356.45 448.945 1337.4C388.012 1318.35 329.993 1303.88 277.459 1300.15L277.389 1301.15ZM1008.76 1468.01L1008.91 1469C1057.55 1461.48 1103.19 1430.39 1147.6 1383.67C1192.02 1336.93 1235.3 1274.45 1279.22 1203.96C1367.09 1062.91 1457.49 889.802 1564.76 745.806L1563.96 745.209L1563.16 744.611C1455.82 888.686 1365.27 1062.05 1277.52 1202.9C1233.62 1273.37 1190.42 1335.71 1146.15 1382.29C1101.87 1428.88 1056.61 1459.6 1008.6 1467.02L1008.76 1468.01ZM1563.96 745.209L1564.76 745.806C1726.34 528.933 1915.33 430.511 2092.81 341.485L2092.36 340.592L2091.91 339.698C1914.4 428.738 1725.04 527.334 1563.16 744.611L1563.96 745.209ZM2092.36 340.592L2092.81 341.487C2286.43 245.116 2529.96 45.142 2754.22 -188.038C2978.48 -421.226 3183.56 -687.72 3300.22 -917.203L3299.33 -917.656L3298.44 -918.109C3181.9 -688.863 2976.96 -422.53 2752.78 -189.424C2528.59 43.6898 2285.24 243.475 2091.91 339.696L2092.36 340.592ZM-658.319 1955.12L-658.944 1955.9C-568.529 2028.2 -488.661 2043.15 -416.51 2017.65C-344.46 1992.18 -280.347 1926.45 -221.185 1837.97L-222.017 1837.42L-222.848 1836.86C-281.943 1925.24 -345.753 1990.52 -417.176 2015.76C-488.497 2040.97 -567.652 2026.34 -657.695 1954.34L-658.319 1955.12ZM-222.017 1837.42L-221.185 1837.97C-170.489 1762.15 -124.288 1676.29 -81.4858 1598.55C-38.6599 1520.77 0.733826 1451.18 37.8535 1407.72L37.0931 1407.07L36.3327 1406.42C-0.947205 1450.06 -40.442 1519.86 -83.2378 1597.59C-126.058 1675.36 -172.211 1761.12 -222.848 1836.86L-222.017 1837.42ZM37.0931 1407.07L37.8538 1407.72C87.5226 1349.52 163.476 1329.24 257.259 1335.67L257.328 1334.68L257.396 1333.68C163.29 1327.22 86.5789 1347.54 36.3324 1406.42L37.0931 1407.07ZM257.328 1334.68L257.259 1335.67C360.531 1342.78 484.751 1385.69 611.337 1423.37C737.819 1461.01 866.631 1493.42 978.768 1479.25L978.643 1478.25L978.517 1477.26C866.854 1491.37 738.425 1459.11 611.908 1421.45C485.494 1383.83 360.957 1340.81 257.396 1333.68L257.328 1334.68ZM978.643 1478.25L978.768 1479.25C1026.99 1473.15 1073.33 1444.79 1119.01 1401.22C1164.7 1357.64 1209.82 1298.76 1255.59 1231.44C1301.36 1164.11 1347.82 1088.3 1396.18 1010.85C1444.54 933.385 1494.79 854.279 1548.19 780.331L1547.38 779.746L1546.57 779.16C1493.13 853.168 1442.84 932.323 1394.48 1009.79C1346.11 1087.26 1299.68 1163.03 1253.94 1230.31C1208.19 1297.6 1163.17 1356.34 1117.63 1399.77C1072.09 1443.21 1026.13 1471.24 978.517 1477.26L978.643 1478.25ZM1547.38 779.746L1548.19 780.331C1707.33 559.928 1887.7 420.975 2064.07 332.926L2063.62 332.031L2063.17 331.136C1886.53 419.325 1705.9 558.486 1546.57 779.16L1547.38 779.746ZM2063.62 332.031L2064.07 332.927C2262.16 234.544 2515.53 38.7209 2747.67 -191.459C2979.81 -421.639 3190.82 -686.27 3304.14 -922.321L3303.24 -922.754L3302.34 -923.187C3189.16 -687.425 2978.32 -422.979 2746.26 -192.879C2514.2 37.2222 2261.01 232.885 2063.18 331.135L2063.62 332.031ZM-669.659 1971.23L-670.278 1972.01C-582.002 2041.54 -503.391 2052.28 -432.32 2024.63C-361.36 1997.03 -298.115 1931.22 -240.311 1848.14L-241.131 1847.56L-241.952 1846.99C-299.699 1930 -362.659 1995.38 -433.045 2022.77C-503.321 2050.11 -581.197 2039.63 -669.04 1970.44L-669.659 1971.23ZM-241.131 1847.56L-240.311 1848.14C-189.14 1774.57 -142.646 1691 -99.7219 1615.71C-56.7703 1540.37 -17.4254 1473.39 19.491 1432.85L18.7515 1432.17L18.0121 1431.5C-19.0845 1472.24 -58.5421 1539.44 -101.459 1614.72C-144.404 1690.04 -190.845 1773.52 -241.952 1846.99L-241.131 1847.56ZM18.7515 1432.17L19.4906 1432.85C68.368 1379.21 144.27 1362.95 237.116 1369.15L237.182 1368.15L237.249 1367.15C144.181 1360.94 67.504 1377.19 18.0125 1431.5L18.7515 1432.17ZM237.182 1368.15L237.115 1369.15C338.997 1375.97 460.741 1411.49 585.161 1442.62C709.499 1473.72 836.471 1500.43 948.543 1489.44L948.445 1488.45L948.348 1487.45C836.662 1498.4 710.002 1471.79 585.646 1440.68C461.373 1409.59 339.364 1373.99 237.249 1367.15L237.182 1368.15ZM948.445 1488.45L948.543 1489.44C996.341 1484.76 1043.38 1459.14 1090.34 1418.72C1137.3 1378.3 1184.26 1323.01 1231.89 1258.86C1279.53 1194.71 1327.86 1121.64 1377.57 1045.65C1427.29 969.654 1478.37 890.727 1531.53 814.805L1530.71 814.232L1529.89 813.658C1476.71 889.612 1425.6 968.573 1375.9 1044.56C1326.19 1120.55 1277.88 1193.57 1230.29 1257.67C1182.69 1321.78 1135.83 1376.93 1089.04 1417.21C1042.23 1457.49 995.568 1482.83 948.348 1487.45L948.445 1488.45ZM1530.71 814.232L1531.53 814.805C1688.33 590.898 1859.91 411.456 2035.29 324.315L2034.84 323.419L2034.4 322.524C1858.57 409.889 1686.76 589.658 1529.89 813.658L1530.71 814.232ZM2034.84 323.419L2035.29 324.315C2237.9 223.969 2501.11 32.2949 2741.14 -194.896C2981.17 -422.081 3198.1 -684.872 3308.06 -927.49L3307.15 -927.902L3306.24 -928.315C3196.44 -686.037 2979.71 -423.456 2739.77 -196.348C2499.83 30.7536 2236.78 222.292 2034.4 322.523L2034.84 323.419ZM-681 1987.39L-681.613 1988.18C-599.1 2052.13 -524.637 2060.85 -456.987 2035.29C-389.439 2009.77 -328.847 1950.13 -273.836 1877.75C-218.812 1805.34 -169.27 1720.04 -123.884 1643.05C-78.4641 1565.99 -37.2495 1497.34 1.16705 1458.03L0.451843 1457.33L-0.263367 1456.63C-38.8882 1496.16 -80.2348 1565.06 -125.607 1642.03C-171.012 1719.06 -220.491 1804.25 -275.428 1876.54C-330.379 1948.84 -390.689 2008.1 -457.694 2033.42C-524.596 2058.69 -598.336 2050.19 -680.387 1986.6L-681 1987.39ZM0.451843 1457.33L1.16718 1458.03C39.4247 1418.87 95.3665 1403.18 163.057 1401.43C230.744 1399.69 310.008 1411.89 394.73 1428.33C564.073 1461.19 755.213 1511.01 918.359 1499.69L918.29 1498.7L918.221 1497.7C755.418 1508.99 564.679 1459.27 395.111 1426.36C310.379 1409.92 230.929 1397.68 163.005 1399.43C95.0853 1401.19 38.5203 1416.93 -0.263489 1456.63L0.451843 1457.33ZM918.29 1498.7L918.359 1499.69C1000.27 1494.02 1083.36 1429.71 1168.28 1333.64C1253.25 1237.53 1340.27 1109.38 1429.99 975.612C1519.74 841.821 1612.2 702.397 1708.1 583.632C1804.01 464.854 1903.28 366.846 2006.59 315.803L2006.15 314.906L2005.7 314.01C1901.99 365.251 1802.5 463.54 1706.54 582.375C1610.58 701.224 1518.06 840.733 1428.33 974.498C1338.59 1108.29 1251.65 1236.32 1166.78 1332.32C1081.88 1428.36 999.262 1492.09 918.221 1497.7L918.29 1498.7ZM2006.15 314.906L2006.59 315.803C2213.72 213.469 2486.75 25.93 2734.64 -198.276C2982.52 -422.472 3205.34 -683.422 3311.94 -932.607L3311.02 -933L3310.1 -933.393C3203.67 -684.599 2981.09 -423.88 2733.3 -199.76C2485.52 24.3499 2212.63 211.774 2005.7 314.01L2006.15 314.906Z" fill="#FF9900" mask="url(#path-1-inside-1_711_4718)"/>
</g>
</g>
<defs>
<clipPath id="clip0_711_4718">
<rect width="2500" height="1867" fill="white"/>
</clipPath>
</defs>
</svg>
