<svg width="3993" height="2981" viewBox="0 0 3993 2981" fill="none" xmlns="http://www.w3.org/2000/svg">
<g opacity="0.63">
<path d="M271.986 2533.63C547.882 2800.43 716.632 2972.16 879.239 2547.15C1041.85 2122.14 1111.92 1502.97 1380.94 1530.77C1649.96 1558.58 2097.4 2343.71 2323.8 2186.31C2550.21 2028.91 2372.43 1088.25 2594.84 952.927C2817.25 817.606 3180.83 1561.56 3377.85 1453.42C3574.87 1345.28 3524.3 306.916 3899.01 122.863" stroke="#FF9900" stroke-width="0.84" stroke-miterlimit="10"/>
<path d="M260.644 2549.75C532.2 2810.96 699.619 2971.05 860.121 2557.3C953.175 2319.37 1016.67 2019.33 1102.59 1812.43C1167.21 1656.42 1246 1552.51 1360.79 1564.25C1626.97 1591.43 2067.32 2347.99 2293.6 2196.51C2518.41 2045.12 2355.81 1129.33 2578.17 987.417C2797.36 847.525 3152.99 1552.08 3349.06 1444.81C3555.15 1332.62 3534.91 314.851 3902.87 117.714" stroke="#FF9900" stroke-width="0.81" stroke-miterlimit="10"/>
<path d="M249.301 2565.86C516.518 2821.54 681.488 2969.47 841.045 2567.45C933.927 2333.32 998.927 2038.77 1084.29 1837.54C1148.17 1686.15 1226.88 1586.29 1340.68 1597.74C1604.07 1624.29 2037.59 2352.95 2263.4 2206.71C2486.96 2061.96 2339.22 1170.51 2561.5 1021.91C2777.51 877.545 3125.11 1542.56 3320.28 1436.2C3535.38 1320.02 3545.52 322.742 3906.78 112.52" stroke="#FF9900" stroke-width="0.77" stroke-miterlimit="10"/>
<path d="M237.962 2581.98C500.84 2832.08 663.963 2968.12 821.93 2577.6C914.983 2347.51 981.143 2058.15 1065.99 1862.7C1129.19 1715.93 1207.76 1620.06 1320.58 1631.26C1581.14 1657.24 2007.65 2357.56 2233.24 2217C2455.35 2078.55 2322.68 1211.88 2544.88 1056.55C2767.07 901.212 3097.1 1532.65 3291.54 1427.73C3515.45 1306.94 3556.18 330.823 3910.69 107.517" stroke="#FF9900" stroke-width="0.74" stroke-miterlimit="10"/>
<path d="M226.663 2598.14C485.202 2842.66 646.563 2966.87 802.855 2587.8C896.08 2361.7 963.744 2077.83 1047.69 1887.86C1110.46 1745.9 1188.64 1653.83 1300.47 1664.8C1558.19 1690.15 1977.71 2362.23 2203.08 2227.25C2423.73 2095.1 2306.14 1253.25 2528.25 1091.09C2737.94 938.014 3069.22 1523.08 3262.8 1419.17C3495.69 1294.19 3566.83 338.762 3914.6 102.371" stroke="#FF9900" stroke-width="0.7" stroke-miterlimit="10"/>
<path d="M215.319 2614.26C469.519 2853.2 629.119 2965.57 783.736 2597.95C877.133 2375.84 946.042 2097.26 1029.39 1912.97C1091.51 1775.68 1169.53 1687.55 1280.36 1698.28C1535.25 1723 1947.76 2366.8 2172.88 2237.44C2392.02 2111.55 2289.6 1294.67 2511.58 1125.58C2718.14 968.272 3041.33 1513.45 3234.01 1410.56C3475.88 1281.39 3577.44 346.65 3918.47 97.2224" stroke="#FF9900" stroke-width="0.67" stroke-miterlimit="10"/>
<path d="M203.978 2630.37C453.839 2863.78 611.721 2964.27 764.619 2608.1C858.231 2390.03 928.3 2116.7 1011.04 1938.08C1072.48 1805.45 1150.37 1721.27 1260.22 1731.76C1512.31 1755.86 1917.73 2371.32 2142.68 2247.69C2360.32 2128.05 2273.06 1336.18 2494.91 1160.16C2698.38 998.721 3013.41 1503.98 3205.19 1402.04C3456.04 1268.74 3588.01 354.682 3922.33 92.1213" stroke="#FF9900" stroke-width="0.63" stroke-miterlimit="10"/>
<path d="M192.636 2646.54C438.158 2874.36 594.364 2963.02 745.501 2618.3C839.37 2404.23 910.599 2136.23 992.741 1963.29C1053.53 1835.33 1131.25 1755.14 1240.11 1765.34C1489.37 1788.81 1887.7 2375.94 2112.52 2257.99C2337.33 2140.03 2256.57 1377.84 2478.29 1194.75C2678.7 1029.22 2985.57 1494.5 3176.45 1393.53C3436.32 1256.09 3598.71 362.669 3926.24 87.0718" stroke="#FF9900" stroke-width="0.6" stroke-miterlimit="10"/>
<path d="M181.339 2662.65C422.522 2884.9 577.095 2961.77 726.427 2628.45C820.512 2418.42 892.901 2155.67 974.441 1988.4C1034.59 1865.11 1112.17 1788.86 1220.01 1798.82C1466.43 1821.72 1857.72 2380.46 2082.32 2268.18C2296.86 2160.96 2240.11 1419.5 2461.62 1229.25C2659.03 1059.72 2957.73 1484.93 3147.66 1384.92C3416.51 1243.34 3609.32 370.607 3930.11 81.8769" stroke="#FF9900" stroke-width="0.56" stroke-miterlimit="10"/>
<path d="M169.997 2678.77C406.84 2895.43 559.867 2960.52 707.352 2638.6C801.737 2432.56 875.201 2175.1 956.182 2013.51C1015.64 1894.88 1093.1 1822.58 1199.94 1832.3C1443.53 1854.57 1827.69 2384.94 2052.2 2278.38C2265.2 2177.31 2223.74 1461.21 2445.04 1263.78C2639.48 1090.32 2929.94 1475.45 3118.97 1376.35C3396.84 1230.69 3620.02 378.544 3934.11 76.7767" stroke="#FF9900" stroke-width="0.53" stroke-miterlimit="10"/>
<path d="M158.655 2694.88C391.159 2906.02 542.639 2959.32 688.234 2648.75C782.92 2446.75 857.457 2194.58 937.837 2038.62C996.608 1924.61 1073.94 1856.3 1179.79 1865.78C1420.55 1887.43 1797.61 2389.36 2022 2288.63C2233.41 2193.72 2207.38 1503.01 2428.41 1298.32C2619.89 1121.01 2902.1 1465.97 3090.22 1367.79C3377.12 1218.08 3630.67 386.529 3938.01 71.6296" stroke="#FF9900" stroke-width="0.49" stroke-miterlimit="10"/>
<path d="M147.314 2711.04C375.522 2916.6 525.499 2958.16 669.117 2658.95C764.147 2460.99 839.672 2214.06 919.537 2063.83C977.62 1954.49 1054.82 1890.12 1159.69 1899.36C1397.65 1920.38 1767.54 2393.88 1991.8 2298.92C2201.62 2210.12 2191.01 1544.91 2411.74 1332.91C2600.3 1151.79 2874.26 1456.54 3061.4 1359.27C3357.31 1205.48 3641.24 394.515 3941.84 66.5782" stroke="#FF9900" stroke-width="0.46" stroke-miterlimit="10"/>
<path d="M135.971 2727.16C359.841 2927.14 508.4 2956.96 649.999 2669.1C745.372 2475.23 821.929 2233.5 901.192 2088.94C958.587 1984.26 1035.66 1923.89 1139.54 1932.84C1374.66 1953.24 1737.38 2398.26 1961.6 2309.12C2169.83 2226.38 2174.73 1586.82 2395.07 1367.45C2580.75 1182.58 2846.42 1447.07 3032.61 1350.71C3337.59 1192.88 3651.85 402.453 3945.75 61.4321" stroke="#FF9900" stroke-width="0.42" stroke-miterlimit="10"/>
<path d="M124.673 2743.28C344.203 2937.67 491.388 2955.81 630.925 2679.25C726.685 2489.47 804.186 2252.93 882.934 2114.05C939.642 2014.04 1016.59 1957.61 1119.48 1966.32C1351.77 1986.14 1707.35 2402.59 1931.48 2319.37C2138.08 2242.64 2158.53 1628.81 2378.49 1401.99C2561.38 1213.37 2818.63 1437.64 3003.92 1342.15C3317.92 1180.32 3662.55 410.438 3949.7 56.3319" stroke="#FF9900" stroke-width="0.39" stroke-miterlimit="10"/>
<path d="M113.332 2759.44C328.523 2948.3 474.376 2954.75 611.808 2689.45C707.997 2503.76 786.401 2272.42 864.59 2139.21C920.611 2043.82 997.425 1991.38 1099.33 1999.85C1328.78 2019.05 1677.2 2406.92 1901.24 2329.62C2106.2 2258.9 2142.29 1670.86 2361.78 1436.53C2541.87 1244.25 2790.74 1428.21 2975.09 1333.59C3298.16 1167.77 3673.12 418.377 3953.53 51.1857" stroke="#FF9900" stroke-width="0.35" stroke-miterlimit="10"/>
<path d="M101.989 2775.55C312.841 2958.84 457.448 2953.69 592.732 2699.6C689.394 2518 768.657 2291.8 846.33 2164.37C901.621 2073.64 978.349 2025.15 1079.26 2033.38C1305.93 2051.95 1647.08 2411.25 1871.12 2339.86C2074.41 2275.11 2126.22 1713 2345.19 1471.12C2522.54 1275.23 2762.99 1418.83 2946.39 1325.07C3278.52 1155.26 3683.81 426.409 3957.52 46.0855" stroke="#FF9900" stroke-width="0.32" stroke-miterlimit="10"/>
<path d="M90.6474 2791.67C297.161 2969.37 440.607 2952.63 573.614 2709.75C670.749 2532.33 750.828 2311.24 827.986 2189.48C882.547 2103.37 959.189 2058.88 1059.12 2066.86C1282.94 2084.8 1616.92 2415.44 1840.92 2350.06C2042.58 2291.23 2110.16 1755.09 2328.53 1505.61C2503.16 1306.12 2735.15 1409.35 2917.61 1316.46C3258.8 1142.7 3694.47 434.299 3961.39 40.9384" stroke="#FF9900" stroke-width="0.28" stroke-miterlimit="10"/>
<path d="M79.3063 2807.83C281.48 2979.96 423.767 2951.67 554.497 2719.94C652.19 2546.72 733 2330.67 809.685 2214.64C863.515 2133.15 940.072 2092.69 1039.01 2100.39C1260 2117.71 1586.76 2419.67 1810.76 2360.35C2010.74 2307.39 2094.13 1797.33 2311.9 1540.2C2483.87 1337.15 2707.36 1400.02 2888.82 1307.95C3239.08 1130.24 3705.08 442.332 3965.25 35.8392" stroke="#FF9900" stroke-width="0.25" stroke-miterlimit="10"/>
<path d="M68.008 2823.95C265.843 2990.54 407.099 2950.75 535.423 2730.09C633.718 2561.05 715.215 2350.06 791.384 2239.8C844.484 2162.93 920.955 2126.46 1018.91 2133.92C1237.06 2150.66 1556.65 2423.8 1780.56 2370.6C1978.87 2323.46 2078.15 1839.56 2295.23 1574.79C2464.58 1368.17 2679.56 1390.64 2860.04 1299.43C3219.41 1117.78 3715.69 450.317 3969.12 30.7868" stroke="#FF9900" stroke-width="0.21" stroke-miterlimit="10"/>
<path d="M56.6649 2840.06C250.161 3001.07 390.386 2949.84 516.304 2740.24C615.286 2575.48 697.341 2369.45 773.082 2264.91C825.408 2192.66 901.836 2160.19 998.798 2167.4C1214.16 2183.52 1526.49 2427.89 1750.4 2380.8C1947.03 2339.43 2062.3 1881.8 2278.61 1609.28C2445.38 1399.15 2651.76 1381.21 2831.3 1290.82C3199.77 1105.28 3726.35 458.255 3973.07 25.5919" stroke="#FF9900" stroke-width="0.18" stroke-miterlimit="10"/>
<path d="M45.3218 2856.18C234.479 3011.61 373.758 2949.02 497.185 2750.4C596.854 2589.96 679.468 2388.79 754.736 2290.02C806.289 2222.34 882.674 2193.91 978.605 2200.89C1191.13 2216.38 1496.24 2431.89 1720.15 2391.05C1915.15 2355.45 2046.4 1924.13 2261.89 1643.82C2426.13 1430.23 2624.05 1372.22 2802.47 1282.26C3180.35 1093.68 3736.91 466.194 3976.89 20.4946" stroke="#FF9900" stroke-width="0.14" stroke-miterlimit="10"/>
<path d="M33.9825 2872.34C218.801 3022.19 357.221 2948.3 478.07 2760.59C578.555 2604.54 661.599 2408.17 736.437 2315.18C787.217 2252.12 863.558 2227.68 958.502 2234.41C1168.19 2249.28 1466.13 2435.88 1689.96 2401.29C1883.28 2371.42 2030.59 1966.51 2245.23 1678.41C2406.97 1461.31 2596.17 1362.79 2773.69 1273.74C3160.68 1081.13 3747.57 474.13 3980.8 15.3456" stroke="#FF9900" stroke-width="0.11" stroke-miterlimit="10"/>
<path d="M22.6833 2888.46C203.162 3032.78 340.766 2947.63 459.038 2770.74C560.383 2619.16 643.77 2427.46 718.178 2340.34C768.142 2281.8 844.483 2261.5 938.439 2267.94C1145.3 2282.18 1436.01 2439.83 1659.84 2411.54C1851.53 2387.29 2014.95 2008.89 2228.64 1712.95C2387.9 1492.38 2568.42 1353.31 2744.95 1265.18C3140.92 1068.52 3758.18 482.116 3984.71 10.2473" stroke="#FF9900" stroke-width="0.07" stroke-miterlimit="10"/>
<path d="M11.3422 2904.57C187.482 3043.31 324.356 2947 439.921 2780.89C542.211 2633.83 625.813 2446.75 699.834 2365.45C749.025 2311.48 825.323 2295.22 918.291 2301.42C1122.31 2315.09 1405.85 2443.67 1629.64 2421.74C1819.7 2403.12 1999.27 2051.23 2211.97 1747.44C2368.82 1523.46 2540.54 1343.83 2716.16 1256.57C3121.2 1055.97 3768.84 490.052 3988.62 5.09826" stroke="#FF9900" stroke-width="0.04" stroke-miterlimit="10"/>
<mask id="path-25-inside-1_1_1119" fill="white">
<path d="M0 2920.74C329.167 3175.84 527.432 2548.3 681.532 2390.61C835.633 2232.87 1273.49 2454.59 1599.48 2431.98C1925.42 2409.42 2273.36 1452.65 2687.47 1248.05C3101.57 1043.46 3779.45 498.038 3992.49 0"/>
</mask>
<path d="M681.532 2390.61L682.248 2391.31L682.248 2391.31L681.532 2390.61ZM1599.48 2431.98L1599.41 2430.99H1599.41L1599.48 2431.98ZM0 2920.74L-0.612644 2921.53C81.9098 2985.48 156.381 2994.2 224.04 2968.64C291.595 2943.11 352.195 2883.47 407.212 2811.08C462.243 2738.67 511.791 2653.36 557.182 2576.35C602.607 2499.29 643.827 2430.63 682.248 2391.31L681.532 2390.61L680.817 2389.91C642.188 2429.44 600.836 2498.36 555.459 2575.34C510.049 2652.37 460.564 2737.57 405.62 2809.87C350.662 2882.18 290.346 2941.45 223.333 2966.77C156.423 2992.05 82.6736 2983.54 0.612644 2919.95L0 2920.74ZM681.532 2390.61L682.248 2391.31C720.51 2352.15 776.458 2336.46 844.157 2334.71C911.852 2332.96 991.125 2345.16 1075.86 2361.61C1245.22 2394.47 1436.38 2444.3 1599.55 2432.98L1599.48 2431.98L1599.41 2430.99C1436.59 2442.28 1245.83 2392.55 1076.24 2359.64C991.496 2343.2 912.036 2330.96 844.105 2332.71C776.177 2334.46 719.605 2350.21 680.817 2389.91L681.532 2390.61ZM1599.48 2431.98L1599.55 2432.98C1681.47 2427.31 1764.57 2362.99 1849.5 2266.91C1934.48 2170.78 2021.51 2042.62 2111.24 1908.84C2201 1775.03 2293.47 1635.59 2389.38 1516.81C2485.3 1398.02 2584.58 1300 2687.91 1248.95L2687.47 1248.05L2687.02 1247.16C2583.3 1298.4 2483.79 1396.71 2387.83 1515.55C2291.85 1634.42 2199.32 1773.94 2109.58 1907.72C2019.83 2041.53 1932.88 2169.58 1848 2265.58C1763.09 2361.64 1680.46 2425.38 1599.41 2430.99L1599.48 2431.98ZM2687.47 1248.05L2687.91 1248.95C2895.06 1146.61 3168.13 959.044 3416.04 734.811C3663.95 510.588 3886.8 249.608 3993.41 0.393339L3992.49 0L3991.57 -0.393339C3885.13 248.431 3662.52 509.18 3414.7 733.327C3166.89 957.463 2893.97 1144.91 2687.02 1247.16L2687.47 1248.05Z" fill="#FF9900" mask="url(#path-25-inside-1_1_1119)"/>
</g>
</svg>
