<svg width="520" height="549" viewBox="0 0 520 549" fill="none" xmlns="http://www.w3.org/2000/svg">
<path opacity="0.95" d="M382.821 547.94H9.94801C4.73032 547.94 0.500188 544.581 0.500188 540.436V93.8138C0.500188 89.3226 0.501471 85.9849 0.773579 83.3406C1.0444 80.7023 1.58227 78.7984 2.62784 77.1686C4.49974 74.2511 7.4878 71.8779 11.1611 70.3912C13.2132 69.5608 15.6104 69.1335 18.9322 68.9184C22.2616 68.7023 26.4641 68.7013 32.1189 68.7013H223.992C248.053 68.7013 267.558 53.2097 267.558 34.1001C267.558 15.5439 286.499 0.500371 309.863 0.500371H510.052C515.27 0.500371 519.5 3.86002 519.5 8.00411V439.886C519.5 459.774 519.5 499.416 519.5 540.436C519.5 545.939 516.35 547.94 510.052 547.94C481.079 547.94 407.519 547.94 382.821 547.94Z" fill="white" fill-opacity="0.1" stroke="#9D9D9D"/>
</svg>
