<svg width="100" height="56" viewBox="0 0 100 56" fill="none" xmlns="http://www.w3.org/2000/svg">
<g clip-path="url(#clip0_238_890)">
<path d="M0.080281 31.1817C0.478701 26.0114 3.18796 22.034 6.37531 20.2045C12.3516 16.8636 17.8498 19.4886 21.3559 20.0454C24.3042 20.5227 27.9697 20.7614 33.6273 17.4205C37.7708 14.9545 39.6036 14.1591 40.5598 14L40.002 12.6477C40.002 12.6477 36.3365 13.6817 35.4599 10.1022C34.9023 8.1136 36.8146 5.56814 38.1692 5.56814C39.8426 5.56814 41.516 5.4886 42.5519 7.2386C43.5877 8.9886 42.6315 10.7386 41.9941 11.2159C41.9941 11.2159 42.7113 12.25 42.8705 13.2045C42.8705 13.2045 45.819 12.7272 47.3329 13.0454L48.2094 9.78405C48.2094 9.78405 44.783 8.67042 44.2252 6.28405C43.6675 3.81814 45.1814 1.19314 47.4126 0.318139C49.6437 -0.556861 51.7155 0.0795027 53.2296 1.27268C54.8232 2.46586 56.0185 5.17041 54.6638 7.63632C53.3888 9.8636 50.839 10.0227 50.839 10.0227C50.839 10.0227 50.2015 12.7272 50.0421 13.6817C50.0421 13.6817 53.2296 14.9545 53.7874 15.5114L55.0623 13.7614C55.0623 13.7614 53.628 11.2159 55.4607 9.46586C56.9747 8.03405 58.9668 8.67041 60.0026 9.30677C60.9588 9.94314 61.8354 11.8522 61.0386 13.5227C60.2418 15.1136 58.5684 15.9886 56.5763 14.8749C56.5763 14.8749 55.8591 16.1477 55.6997 16.784C55.6997 16.784 61.2776 20.284 62.3932 27.7614C63.5885 35.3182 60.8792 46.2954 49.9625 52.4205C39.1254 58.5454 20.1607 56.3977 10.5189 49.4772C5.02069 45.5795 -0.636875 40.0908 0.080281 31.1817Z" fill="#E60013"/>
<path d="M55.6194 16.7842C55.6194 16.7842 61.1973 20.2842 62.3129 27.7615L55.6194 16.7842Z" fill="#E60013"/>
<path d="M39.1248 10.9773C39.1248 10.9773 37.5312 11.2159 37.4514 9.30686C37.4514 8.98868 37.4514 8.59095 37.6108 8.27277C37.8498 7.95459 38.2482 7.71595 38.7264 7.31823C39.2842 6.84095 40.0013 7.00005 40.6389 7.71595C41.2763 8.35232 41.5153 9.14777 40.8779 9.86368C40.8779 9.86368 40.0013 8.90914 39.2842 9.3864C38.567 9.78414 38.8858 10.5796 39.1248 10.9773Z" fill="#8FC31F"/>
<path d="M48.2885 7.95446C48.2885 7.95446 45.8979 7.23855 46.0573 4.77264C46.2167 2.38628 48.5276 1.90901 49.4838 1.98855C50.44 2.0681 52.2727 1.67036 53.2289 4.05673C54.1851 6.4431 52.4321 7.95446 50.7587 8.11355C50.7587 8.11355 50.7587 5.64764 49.6432 5.88627C48.5276 6.04536 48.3682 6.28401 48.2885 7.95446Z" fill="#8FC31F"/>
<path d="M56.496 12.1704C56.496 12.1704 56.257 11.2158 57.0538 10.7385C57.9303 10.2613 58.2491 10.659 58.6475 10.9772C59.0459 11.2954 59.7631 11.2954 59.6833 11.9317C59.6037 12.6476 59.2053 13.7613 57.771 13.5226C57.771 13.5226 58.8069 12.5681 58.01 11.9317C57.5319 11.534 56.496 12.1704 56.496 12.1704Z" fill="#8FC31F"/>
<path d="M9.88086 25.1365C10.5183 24.341 11.873 23.7842 13.4666 23.5456C16.654 22.9887 19.3632 22.6706 22.3913 23.6252C25.499 24.5796 29.5629 26.807 27.491 35.0001C27.491 35.0001 29.4035 34.6819 29.9613 35.7956C30.5191 36.9092 30.8377 38.5796 29.0847 39.2161C27.4114 39.8524 23.3475 41.0456 20.4788 40.9661C20.4788 40.9661 19.7616 41.9206 20.0008 43.4319C20.2398 44.9433 21.4351 47.2501 20.4788 48.2842C19.5226 49.3978 17.2118 49.8752 16.2555 47.9661C15.7775 47.091 15.5385 45.8184 15.3791 44.5456C15.1401 42.9547 15.2993 41.4433 15.4587 40.8865C15.4587 40.8865 11.7933 40.5684 10.1996 39.9319C8.60592 39.3752 7.57003 38.341 7.96845 36.7501C8.28719 35.557 9.7215 35.0001 10.7574 35.3184C11.7933 35.6365 15.8571 36.7501 18.9648 36.6706C21.6741 36.591 22.3913 36.8297 23.0287 34.7615C23.7459 32.2956 24.8615 28.7161 21.6741 27.7615C18.7258 26.8865 15.0603 27.5229 13.8651 27.7615C12.7494 28.0001 11.9527 29.1933 10.1199 27.841C9.32308 27.1252 9.2434 25.9319 9.88086 25.1365Z" fill="white"/>
<path d="M40.4795 29.5908C38.9655 29.5113 37.6109 29.6704 37.7702 27.9999C37.7702 27.9999 37.5312 26.8862 38.9655 26.8067C40.3201 26.7271 43.7465 26.7271 45.1011 26.8067C46.4557 26.8862 47.9698 26.5681 48.1291 27.6022C48.2885 28.6362 48.2885 29.3522 46.6151 29.5113C45.0215 29.6704 41.9934 29.6704 40.4795 29.5908ZM52.8305 35.0794C51.7149 34.7613 50.201 35.3976 48.7666 35.7954C47.412 36.1931 45.1809 36.1136 45.1809 36.1136L45.2605 33.8862C46.3761 33.8067 47.412 33.7271 49.9618 33.409C52.5117 33.0908 52.3524 31.1022 52.5117 30.0681C52.5915 29.034 52.6711 27.6022 52.1931 24.8181C51.7149 22.034 48.687 22.2727 42.1528 22.2727C35.6188 22.3522 34.7422 22.8294 34.0251 23.784C33.3079 24.7385 33.547 28.7954 33.547 30.784C33.547 32.7727 34.6626 32.9317 36.1766 33.3294C37.7702 33.7271 40.6388 33.8862 40.6388 33.8862L40.7185 36.1136C37.6905 36.034 34.7422 34.7613 33.3079 34.9204C31.7939 35.0794 31.7939 36.5113 31.9533 37.7045C32.1127 38.8976 36.4156 40.3294 40.5591 40.5681C44.623 40.8067 46.5355 40.6476 50.2806 39.7727C54.1055 38.8976 53.9461 38.1817 54.1055 37.1476C54.2648 36.3522 53.9461 35.4771 52.8305 35.0794Z" fill="white"/>
<path d="M33.8657 44.227C33.8657 44.227 33.4673 42.0793 34.9813 41.3634C36.4952 40.6475 37.7702 41.3634 37.9296 41.8407C38.089 42.318 38.2483 44.3066 40.0013 44.4657C41.7544 44.6248 45.3402 44.7838 47.8105 44.1475C50.2806 43.5112 51.6352 43.1134 52.2727 44.3066C52.8305 45.4998 53.3883 47.3293 50.9978 47.9657C48.6073 48.6815 42.3122 49.1589 39.4437 48.7612C36.4156 48.4429 34.5032 47.0112 33.8657 44.227Z" fill="white"/>
<path d="M83.7816 30.2275H81.7099V26.7275H79.3193V37.3865H81.7099V31.9775H83.7816V30.2275Z" fill="white"/>
<path d="M79.4787 38.6593H68.323V40.5684H78.2835C78.2835 40.5684 79.3991 40.4888 79.3991 41.6821C79.3991 42.7956 79.3991 45.7388 79.3991 45.7388H81.7098C81.7098 45.7388 81.7098 42.1593 81.7098 40.9661C81.7098 38.5002 79.4787 38.6593 79.4787 38.6593Z" fill="white"/>
<path d="M99.878 35.4775H84.8973V37.307H99.878V35.4775Z" fill="white"/>
<path d="M95.7343 43.9092C94.0609 43.9092 89.6782 43.9092 89.1206 43.9092C88.244 43.9092 88.1643 42.7955 88.244 43.1137V42.0001H96.7702V43.0342C96.6904 43.1137 96.6108 43.9092 95.7343 43.9092ZM96.6904 38.6592V40.1706H88.1643V38.6592H85.6941C85.6941 38.6592 85.6941 42.1592 85.6941 43.1137C85.6941 44.7046 86.969 45.9774 88.1643 45.9774C90.1564 45.9774 95.1765 45.9774 96.5312 45.9774C98.1248 45.9774 99.2404 44.6251 99.2404 43.591C99.2404 42.5569 99.2404 38.6592 99.2404 38.6592H96.6904Z" fill="white"/>
<path d="M72.4666 35.716C70.9526 35.716 69.6777 34.3637 69.6777 32.7728C69.6777 31.1023 70.9526 29.8296 72.4666 29.8296C73.9806 29.8296 75.2555 31.1819 75.2555 32.7728C75.2555 34.3637 73.9806 35.716 72.4666 35.716ZM77.7258 27.1251H73.9009V25.5342H71.112V27.1251H67.3669V29.0342H69.3589C68.0841 29.9091 67.2871 31.2614 67.2871 32.7728C67.2871 35.3182 69.598 37.466 72.4666 37.466C75.3353 37.466 77.6461 35.3977 77.6461 32.7728C77.6461 31.2614 76.8493 29.9091 75.5743 29.0342H77.7258V27.1251Z" fill="white"/>
<path d="M84.9769 32.5341C84.9769 32.5341 87.2081 31.9773 88.8814 30.5454C90.5549 29.1931 91.0329 28.3182 91.0329 26.3296H93.8219C93.8219 26.3296 93.7422 28.7954 95.575 30.1477C97.4873 31.5 99.0811 32.1364 99.8779 32.5341L98.9217 34.4431C98.9217 34.4431 93.9016 32.9319 92.4673 30.0682C92.4673 30.0682 90.3158 33.4887 85.9332 34.4431L84.9769 32.5341Z" fill="white"/>
</g>
<defs>
<clipPath id="clip0_238_890">
<rect width="100" height="56" fill="white"/>
</clipPath>
</defs>
</svg>
