<svg width="128" height="34" viewBox="0 0 128 34" fill="none" xmlns="http://www.w3.org/2000/svg">
<g clip-path="url(#clip0_239_1034)">
<mask id="mask0_239_1034" style="mask-type:luminance" maskUnits="userSpaceOnUse" x="0" y="0" width="128" height="34">
<path d="M128 0H0V34H128V0Z" fill="white"/>
</mask>
<g mask="url(#mask0_239_1034)">
<path fill-rule="evenodd" clip-rule="evenodd" d="M33.992 16.9948C33.992 26.3852 26.3791 34 16.9908 34C7.61296 34 0 26.3748 0 16.9948C0 7.61477 7.60255 0 16.9908 0C26.3791 0 33.992 7.60428 33.992 16.9948ZM16.322 24.4427V9.53707H17.6796V23.1162H21.0632V24.4427H16.322ZM11.5703 13.6108C12.6981 13.6108 13.6067 12.702 13.6067 11.574C13.6067 10.4458 12.6981 9.53707 11.5703 9.53707C10.4424 9.53707 9.5339 10.4458 9.5339 11.574C9.5339 12.702 10.4424 13.6108 11.5703 13.6108ZM17.3313 2.77297C17.4599 2.77562 17.5903 2.77831 17.6804 2.77831V2.78876V4.11533C17.5238 4.10489 17.1583 4.10489 17.0017 4.10489C13.5554 4.10489 10.3181 5.45236 7.88487 7.88612C5.44122 10.3304 4.10451 13.5789 4.10451 17.0155C4.10451 20.4521 5.44122 23.7006 7.88487 26.1344C10.3181 28.5682 13.5659 29.9157 17.0017 29.9157C23.8314 29.9157 29.4184 24.5884 29.8779 17.8825V17.684H21.0744V16.3574H30.6611H31.2355V17.0051C31.2355 20.7967 29.7526 24.3795 27.0687 27.064C24.3744 29.759 20.7925 31.2317 17.0017 31.2317C13.2108 31.2317 9.63934 29.759 6.94501 27.064C4.26116 24.3795 2.77825 20.8072 2.77825 17.0051C2.77825 9.16047 9.15894 2.76787 17.0017 2.76787C17.0839 2.76787 17.2067 2.7704 17.3313 2.77297Z" fill="white"/>
<path d="M46.8473 5.78711H41.7302V27.9419H57.4365V23.628H46.8473V5.78711Z" fill="white"/>
<path d="M68.694 19.4921H72.8609V23.3674C72.0984 23.6598 70.5946 23.9523 69.1744 23.9523C64.569 23.9523 63.0339 21.6125 63.0339 16.8598C63.0339 12.1072 64.4959 9.66292 69.1013 9.66292C71.6598 9.66292 73.122 10.4673 74.3224 12.0028L77.508 9.07797C75.5656 6.29951 72.1715 5.46387 68.9968 5.46387C61.8329 5.46387 58.0735 9.37044 58.0735 16.8285C58.0735 24.2866 61.4674 28.2663 68.9655 28.2663C72.401 28.2663 75.7637 27.3889 77.5911 26.1146V15.3662H68.7149V19.4921H68.694Z" fill="white"/>
<path d="M87.5021 21.3508H82.0921V24.265H90.7289C93.1204 24.265 95.919 23.7114 97.4225 22.834V19.8675C95.8872 20.7344 93.5275 21.3508 91.251 21.3508V18.6976H87.4912V21.3508H87.5021ZM96.3363 9.79809H82.0299V12.6915H96.3363V9.79809ZM91.3761 15.2088C91.3761 16.316 90.7809 17.0995 89.3397 17.0995C87.8984 17.0995 87.2613 16.316 87.2613 15.2088C87.2613 14.1016 87.8883 13.3391 89.3397 13.3391C90.791 13.3391 91.3761 14.0807 91.3761 15.2088ZM92.6192 5.72433H90.0397C88.4834 5.72433 86.5931 5.46319 85.6848 5.0976L85.1316 8.11632C86.165 8.42969 87.8774 8.61771 89.0996 8.61771H92.6192V5.72433ZM104.733 12.305H101.119V5.53631H97.2872V27.8583H100.639C100.952 26.5421 101.119 24.5784 101.119 22.8131V15.5117H104.733V12.305ZM83.6274 15.3237C83.6274 18.0082 85.2776 19.6795 89.2977 19.6795C93.3185 19.6795 94.9897 18.0082 94.9897 15.3237C94.9897 12.8168 92.8065 11.041 89.2977 11.041C85.7889 11.041 83.6274 12.8064 83.6274 15.3237ZM114.747 14.6552C114.747 15.6162 114.131 16.3787 112.711 16.3787C111.228 16.3787 110.654 15.6162 110.654 14.6552C110.654 13.6942 111.228 12.9526 112.711 12.9526C114.194 12.9526 114.747 13.7151 114.747 14.6552ZM128 10.5397H124.365V5.53631H120.564V18.9588H124.365V13.642H128V10.5292V10.5397ZM124.365 20.0659H109.537V23.0116H120.564V27.9941H123.937C124.251 26.7511 124.365 25.0694 124.365 23.9725V20.0764V20.0659ZM107.239 14.7492C107.239 17.2561 108.816 18.9588 112.722 18.9588C116.628 18.9588 118.225 17.2353 118.225 14.7492C118.225 12.4512 116.126 10.6337 112.722 10.6337C109.317 10.6337 107.239 12.4512 107.239 14.7492ZM119.583 9.55784H105.589V12.3781H119.583V9.55784ZM116.116 5.58854H113.505C111.949 5.58854 110.132 5.3274 109.108 4.94092L108.586 7.98053C109.61 8.33572 111.27 8.48192 112.346 8.48192H116.126V5.58854H116.116Z" fill="white"/>
</g>
</g>
<defs>
<clipPath id="clip0_239_1034">
<rect width="128" height="34" fill="white"/>
</clipPath>
</defs>
</svg>
