<svg width="233" height="20" viewBox="0 0 233 20" fill="none" xmlns="http://www.w3.org/2000/svg">
<g clip-path="url(#clip0_239_1008)">
<path fill-rule="evenodd" clip-rule="evenodd" d="M4.21619 0.888997L2.99571 3.44455L1.66429 0.888997C1.55333 0.666775 1.33143 0.555664 1.10952 0.555664H0V0.777886C0.110952 0.777886 0.221905 0.777886 0.221905 1.00011V4.55566C0.221905 4.66678 0.110952 4.77789 0 4.77789V5.00011H1.55333V4.77789C1.22048 4.77789 1.10952 4.77789 1.10952 4.55566V2.00011H1.22048L2.88476 5.11122H2.99571L4.66 2.00011H4.77095V4.55566C4.77095 4.66678 4.66 4.77789 4.4381 4.77789V5.00011H5.99143V4.77789C5.88048 4.77789 5.65857 4.66678 5.65857 4.55566V1.00011C5.65857 0.888997 5.76952 0.777886 5.99143 0.777886V0.555664H4.8819C4.54905 0.555664 4.32714 0.666775 4.21619 0.888997Z" fill="white"/>
<path fill-rule="evenodd" clip-rule="evenodd" d="M12.7595 4.22217C12.7595 4.77772 12.3157 5.33328 11.65 5.33328H8.76522C8.21046 5.33328 7.6557 4.88883 7.6557 4.22217V1.33328C7.6557 0.777723 8.09951 0.222168 8.76522 0.222168H11.65C12.2047 0.222168 12.7595 0.666612 12.7595 1.33328V4.22217Z" fill="white"/>
<path fill-rule="evenodd" clip-rule="evenodd" d="M12.7595 11.1113C12.7595 11.6669 12.3157 12.2224 11.65 12.2224H8.76522C8.21046 12.2224 7.6557 11.778 7.6557 11.1113V8.22244C7.6557 7.66688 8.09951 7.11133 8.76522 7.11133H11.65C12.2047 7.11133 12.7595 7.55577 12.7595 8.22244V11.1113Z" fill="white"/>
<path fill-rule="evenodd" clip-rule="evenodd" d="M19.7495 4.22217C19.7495 4.77772 19.3057 5.33328 18.64 5.33328H15.7552C15.2005 5.33328 14.6457 4.88883 14.6457 4.22217V1.33328C14.6457 0.777723 15.0895 0.222168 15.7552 0.222168H18.64C19.1947 0.222168 19.7495 0.666612 19.7495 1.33328V4.22217Z" fill="white"/>
<path fill-rule="evenodd" clip-rule="evenodd" d="M5.65856 11.1113C5.65856 11.6669 5.21475 12.2224 4.54903 12.2224H1.66427C1.10951 12.2224 0.554749 11.778 0.554749 11.1113V8.22244C0.554749 7.66688 0.998558 7.11133 1.66427 7.11133H4.54903C5.1038 7.11133 5.65856 7.55577 5.65856 8.22244V11.1113Z" fill="white"/>
<path fill-rule="evenodd" clip-rule="evenodd" d="M19.7495 11.1113C19.7495 11.6669 19.3057 12.2224 18.64 12.2224H15.7552C15.2005 12.2224 14.6457 11.778 14.6457 11.1113V8.22244C14.6457 7.66688 15.0895 7.11133 15.7552 7.11133H18.64C19.1947 7.11133 19.7495 7.55577 19.7495 8.22244V11.1113Z" fill="white"/>
<path fill-rule="evenodd" clip-rule="evenodd" d="M19.7495 18C19.7495 18.5556 19.3057 19.1111 18.64 19.1111H15.7552C15.2005 19.1111 14.6457 18.6667 14.6457 18V15.1111C14.6457 14.5556 15.0895 14 15.7552 14H18.64C19.1947 14 19.7495 14.4444 19.7495 15.1111V18Z" fill="white"/>
<path fill-rule="evenodd" clip-rule="evenodd" d="M12.7595 18C12.7595 18.5556 12.3157 19.1111 11.65 19.1111H8.76522C8.21046 19.1111 7.6557 18.6667 7.6557 18V15.1111C7.6557 14.5556 8.09951 14 8.76522 14H11.65C12.2047 14 12.7595 14.4444 12.7595 15.1111V18Z" fill="white"/>
<path fill-rule="evenodd" clip-rule="evenodd" d="M5.65856 18C5.65856 18.5556 5.21475 19.1111 4.54903 19.1111H1.66427C1.10951 19.1111 0.554749 18.6667 0.554749 18V15.1111C0.554749 14.5556 0.998558 14 1.66427 14H4.54903C5.1038 14 5.65856 14.4444 5.65856 15.1111V18Z" fill="white"/>
<path fill-rule="evenodd" clip-rule="evenodd" d="M48.93 0.222168V1.22217C48.2643 1.22217 47.8205 1.44439 47.8205 2.11106V16.8888C47.8205 17.5555 48.3752 17.8888 48.93 17.8888V18.8888H42.3838V17.8888C43.3824 17.8888 43.9371 17.5555 43.9371 16.8888V6.33328H43.6043L36.6143 19.1111H36.0595L29.2914 6.22217H28.9586V16.9999C28.9586 17.6666 29.4024 17.9999 30.5119 17.9999V18.9999H24.1876V17.9999C24.8533 17.9999 25.2971 17.6666 25.2971 16.9999V2.22217C25.2971 1.5555 24.8533 1.33328 24.1876 1.33328V0.222168H28.6257C29.7352 0.222168 30.5119 0.777723 30.9557 1.66661L36.3924 12.1111H36.6143L42.1619 1.66661C42.4948 0.888835 43.2714 0.222168 44.381 0.222168H48.93Z" fill="white"/>
<path fill-rule="evenodd" clip-rule="evenodd" d="M74.7819 9.66667C74.7819 16.5556 69.0124 19.3333 63.4648 19.3333C57.9172 19.3333 52.1476 16.5556 52.1476 9.66667C52.1476 2.77778 57.9172 0 63.4648 0C69.0124 0 74.7819 2.77778 74.7819 9.66667ZM56.1419 9.66667C56.1419 14 59.4705 15.8889 63.3538 15.8889C67.2372 15.8889 70.5657 14 70.5657 9.66667C70.5657 5.33333 67.2372 3.44444 63.3538 3.44444C59.4705 3.44444 56.1419 5.33333 56.1419 9.66667Z" fill="white"/>
<path fill-rule="evenodd" clip-rule="evenodd" d="M81.6609 0.222168C82.4376 0.222168 83.1033 0.888835 83.1033 1.66661V15.6666H92.9781C94.0876 15.6666 94.9752 15.1111 94.9752 14.2222H95.9738V18.9999H77.8885V17.9999C78.5543 17.9999 78.9981 17.6666 78.9981 16.9999V2.22217C78.9981 1.5555 78.4433 1.33328 77.8885 1.33328V0.222168H81.6609Z" fill="white"/>
<path fill-rule="evenodd" clip-rule="evenodd" d="M113.282 10.9999H103.851V15.7777H114.392C116.056 15.7777 116.5 15.3333 116.5 14.5555H117.499V19.1111H98.7476V18.1111C99.4133 18.1111 99.8571 17.7777 99.8571 17.1111V2.22217C99.8571 1.5555 99.4133 1.33328 98.7476 1.33328V0.222168H117.388V4.5555H116.389C116.389 3.77772 115.834 3.22217 114.17 3.22217H103.851V7.77772H113.282V10.9999Z" fill="white"/>
<path fill-rule="evenodd" clip-rule="evenodd" d="M129.703 16C131.257 16 135.473 15.8889 135.473 13.6667C135.473 11.4444 133.032 11.7778 130.591 11.4444L128.705 11.2222C124.821 10.6667 121.16 10.2222 121.16 6C121.16 2.55556 123.934 0 129.814 0C134.918 0 139.134 2.44444 139.134 2.44444L137.026 6.44444L136.25 6.22222C136.36 5.66667 136.25 5.22222 135.695 4.77778C134.252 3.66667 131.035 3.11111 129.925 3.11111C127.262 3.11111 125.154 3.88889 125.154 5.44444C125.154 6.77778 126.153 7.11111 127.817 7.33333L131.146 7.77778C135.14 8.33333 139.689 8.55555 139.689 13C139.689 18.2222 134.03 19.1111 130.036 19.1111C124.378 19.1111 120.938 16.6667 120.938 16.6667L122.38 12.8889L123.157 13.1111C123.157 13.6667 123.268 14.1111 123.934 14.5556C125.154 15.3333 128.039 16 129.703 16Z" fill="white"/>
<path fill-rule="evenodd" clip-rule="evenodd" d="M147.789 9.77772L157.996 0.222168H162.767V1.22217C161.99 1.22217 161.547 1.5555 160.992 2.11106L154.668 7.99995L160.215 15.2222C161.658 17.1111 161.88 17.5555 163.433 17.9999V18.9999H159.771C158.551 18.9999 157.774 18.4444 157.109 17.5555L151.672 10.5555L147.789 14.2222V16.8888C147.789 17.5555 148.232 17.8888 149.342 17.8888V18.8888H142.574V17.8888C143.24 17.8888 143.683 17.5555 143.683 16.8888V2.22217C143.683 1.5555 143.24 1.33328 142.574 1.33328V0.222168H146.346C147.123 0.222168 147.789 0.888835 147.789 1.66661V9.77772Z" fill="white"/>
<path fill-rule="evenodd" clip-rule="evenodd" d="M171.089 16.9999C171.089 17.6666 171.532 17.9999 172.198 17.9999V18.9999H165.874V17.9999C166.539 17.9999 166.983 17.6666 166.983 16.9999V2.22217C166.983 1.5555 166.429 1.33328 165.874 1.33328V0.222168H169.646C170.423 0.222168 171.089 0.888835 171.089 1.66661V16.9999Z" fill="white"/>
<path fill-rule="evenodd" clip-rule="evenodd" d="M180.741 5.88884V16.9999C180.741 17.6666 181.185 17.9999 182.295 17.9999V18.9999H175.859V17.9999C176.525 17.9999 176.969 17.6666 176.969 16.9999V2.22217C176.969 1.5555 176.414 1.33328 175.859 1.33328V0.222168H179.077C180.519 0.222168 181.518 0.777723 182.406 1.66661L193.057 12.8888V2.33328C193.057 1.66661 192.613 1.33328 191.504 1.33328V0.222168H197.939V1.22217C197.273 1.22217 196.829 1.44439 196.829 2.11106V16.8888C196.829 17.5555 197.273 17.8888 197.939 17.8888V18.8888H195.165C193.834 18.8888 192.724 18.3333 191.948 17.4444L180.741 5.88884Z" fill="white"/>
<path fill-rule="evenodd" clip-rule="evenodd" d="M216.246 10.9999H206.815V15.7777H217.356C219.02 15.7777 219.464 15.3333 219.464 14.5555H220.462V19.1111H201.6V18.1111C202.266 18.1111 202.71 17.7777 202.71 17.1111V2.22217C202.71 1.5555 202.266 1.33328 201.6 1.33328V0.222168H220.24V4.5555H219.242C219.242 3.77772 218.687 3.22217 217.023 3.22217H206.704V7.77772H216.135L216.246 10.9999Z" fill="white"/>
<path fill-rule="evenodd" clip-rule="evenodd" d="M228.562 0.222168C231.003 0.222168 233 2.22217 233 4.77772C233 7.33328 231.003 9.33328 228.562 9.33328C226.121 9.33328 224.124 7.33328 224.124 4.77772C224.124 2.22217 226.01 0.222168 228.562 0.222168ZM228.562 8.44439C230.67 8.44439 232.334 6.77772 232.334 4.66661C232.334 2.5555 230.67 0.888835 228.562 0.888835C226.454 0.888835 224.79 2.5555 224.79 4.66661C224.79 6.77772 226.454 8.44439 228.562 8.44439ZM227.009 2.66661C227.009 2.5555 227.12 2.44439 227.231 2.44439H229.006C229.782 2.44439 230.559 2.88883 230.559 3.88883C230.559 4.77772 229.893 5.11106 229.561 5.22217C229.782 5.66661 230.004 6.22217 230.337 6.66661C230.448 6.77772 230.337 6.99995 230.115 6.99995H229.671C229.561 6.99995 229.45 6.88883 229.45 6.77772L228.784 5.22217H227.896V6.77772C227.896 6.88883 227.785 6.99995 227.674 6.99995H227.341C227.231 6.99995 227.12 6.88883 227.12 6.77772V2.66661H227.009ZM229.006 4.5555C229.45 4.5555 229.782 4.22217 229.782 3.88883C229.782 3.44439 229.45 3.11106 229.006 3.11106H227.785V4.5555H229.006Z" fill="white"/>
</g>
<defs>
<clipPath id="clip0_239_1008">
<rect width="233" height="20" fill="white"/>
</clipPath>
</defs>
</svg>
